<?xml version="1.0" encoding="utf-8" standalone="no"?>
<!DOCTYPE svg PUBLIC "-//W3C//DTD SVG 1.1//EN"
  "http://www.w3.org/Graphics/SVG/1.1/DTD/svg11.dtd">
<svg xmlns:xlink="http://www.w3.org/1999/xlink" width="2267.66125pt" height="337.03625pt" viewBox="0 0 2267.66125 337.03625" xmlns="http://www.w3.org/2000/svg" version="1.1">
 <metadata>
  <rdf:RDF xmlns:dc="http://purl.org/dc/elements/1.1/" xmlns:cc="http://creativecommons.org/ns#" xmlns:rdf="http://www.w3.org/1999/02/22-rdf-syntax-ns#">
   <cc:Work>
    <dc:type rdf:resource="http://purl.org/dc/dcmitype/StillImage"/>
    <dc:date>2024-07-28T21:51:48.434583</dc:date>
    <dc:format>image/svg+xml</dc:format>
    <dc:creator>
     <cc:Agent>
      <dc:title>Matplotlib v3.7.5, https://matplotlib.org/</dc:title>
     </cc:Agent>
    </dc:creator>
   </cc:Work>
  </rdf:RDF>
 </metadata>
 <defs>
  <style type="text/css">*{stroke-linejoin: round; stroke-linecap: butt}</style>
 </defs>
 <g id="figure_1">
  <g id="patch_1">
   <path d="M 0 337.03625 
L 2267.66125 337.03625 
L 2267.66125 0 
L 0 0 
z
" style="fill: #ffffff"/>
  </g>
  <g id="axes_1">
   <g id="patch_2">
    <path d="M 43.78125 313.158125 
L 2260.46125 313.158125 
L 2260.46125 22.318125 
L 43.78125 22.318125 
z
" style="fill: #ffffff; stroke: #000000; stroke-linejoin: miter"/>
   </g>
   <g id="patch_3">
    <path d="M 144.539432 313.158125 
L 160.751529 313.158125 
L 160.751529 54.182402 
L 144.539432 54.182402 
z
" clip-path="url(#p04d63f01d4)" style="fill: #ffa500; opacity: 0.9"/>
   </g>
   <g id="patch_4">
    <path d="M 252.620077 313.158125 
L 268.832174 313.158125 
L 268.832174 91.995378 
L 252.620077 91.995378 
z
" clip-path="url(#p04d63f01d4)" style="fill: #ffa500; opacity: 0.9"/>
   </g>
   <g id="patch_5">
    <path d="M 360.700723 313.158125 
L 376.91282 313.158125 
L 376.91282 71.013472 
L 360.700723 71.013472 
z
" clip-path="url(#p04d63f01d4)" style="fill: #ffa500; opacity: 0.9"/>
   </g>
   <g id="patch_6">
    <path d="M 468.781368 313.158125 
L 484.993465 313.158125 
L 484.993465 197.844998 
L 468.781368 197.844998 
z
" clip-path="url(#p04d63f01d4)" style="fill: #ffa500; opacity: 0.9"/>
   </g>
   <g id="patch_7">
    <path d="M 576.862014 313.158125 
L 593.074111 313.158125 
L 593.074111 172.314989 
L 576.862014 172.314989 
z
" clip-path="url(#p04d63f01d4)" style="fill: #ffa500; opacity: 0.9"/>
   </g>
   <g id="patch_8">
    <path d="M 684.94266 313.158125 
L 701.154756 313.158125 
L 701.154756 150.612423 
L 684.94266 150.612423 
z
" clip-path="url(#p04d63f01d4)" style="fill: #ffa500; opacity: 0.9"/>
   </g>
   <g id="patch_9">
    <path d="M 793.023305 313.158125 
L 809.235402 313.158125 
L 809.235402 134.344702 
L 793.023305 134.344702 
z
" clip-path="url(#p04d63f01d4)" style="fill: #ffa500; opacity: 0.9"/>
   </g>
   <g id="patch_10">
    <path d="M 901.103951 313.158125 
L 917.316048 313.158125 
L 917.316048 109.379771 
L 901.103951 109.379771 
z
" clip-path="url(#p04d63f01d4)" style="fill: #ffa500; opacity: 0.9"/>
   </g>
   <g id="patch_11">
    <path d="M 1009.184596 313.158125 
L 1025.396693 313.158125 
L 1025.396693 70.743876 
L 1009.184596 70.743876 
z
" clip-path="url(#p04d63f01d4)" style="fill: #ffa500; opacity: 0.9"/>
   </g>
   <g id="patch_12">
    <path d="M 1117.265242 313.158125 
L 1133.477339 313.158125 
L 1133.477339 153.736997 
L 1117.265242 153.736997 
z
" clip-path="url(#p04d63f01d4)" style="fill: #ffa500; opacity: 0.9"/>
   </g>
   <g id="patch_13">
    <path d="M 1225.345887 313.158125 
L 1241.557984 313.158125 
L 1241.557984 62.854414 
L 1225.345887 62.854414 
z
" clip-path="url(#p04d63f01d4)" style="fill: #ffa500; opacity: 0.9"/>
   </g>
   <g id="patch_14">
    <path d="M 1333.426533 313.158125 
L 1349.63863 313.158125 
L 1349.63863 100.539706 
L 1333.426533 100.539706 
z
" clip-path="url(#p04d63f01d4)" style="fill: #ffa500; opacity: 0.9"/>
   </g>
   <g id="patch_15">
    <path d="M 1441.507178 313.158125 
L 1457.719275 313.158125 
L 1457.719275 153.354232 
L 1441.507178 153.354232 
z
" clip-path="url(#p04d63f01d4)" style="fill: #ffa500; opacity: 0.9"/>
   </g>
   <g id="patch_16">
    <path d="M 1549.587824 313.158125 
L 1565.799921 313.158125 
L 1565.799921 65.455822 
L 1549.587824 65.455822 
z
" clip-path="url(#p04d63f01d4)" style="fill: #ffa500; opacity: 0.9"/>
   </g>
   <g id="patch_17">
    <path d="M 1657.66847 313.158125 
L 1673.880566 313.158125 
L 1673.880566 138.592161 
L 1657.66847 138.592161 
z
" clip-path="url(#p04d63f01d4)" style="fill: #ffa500; opacity: 0.9"/>
   </g>
   <g id="patch_18">
    <path d="M 1765.749115 313.158125 
L 1781.961212 313.158125 
L 1781.961212 113.517369 
L 1765.749115 113.517369 
z
" clip-path="url(#p04d63f01d4)" style="fill: #ffa500; opacity: 0.9"/>
   </g>
   <g id="patch_19">
    <path d="M 1873.829761 313.158125 
L 1890.041858 313.158125 
L 1890.041858 140.013312 
L 1873.829761 140.013312 
z
" clip-path="url(#p04d63f01d4)" style="fill: #ffa500; opacity: 0.9"/>
   </g>
   <g id="patch_20">
    <path d="M 1981.910406 313.158125 
L 1998.122503 313.158125 
L 1998.122503 161.336188 
L 1981.910406 161.336188 
z
" clip-path="url(#p04d63f01d4)" style="fill: #ffa500; opacity: 0.9"/>
   </g>
   <g id="patch_21">
    <path d="M 2089.991052 313.158125 
L 2106.203149 313.158125 
L 2106.203149 113.296293 
L 2089.991052 113.296293 
z
" clip-path="url(#p04d63f01d4)" style="fill: #ffa500; opacity: 0.9"/>
   </g>
   <g id="patch_22">
    <path d="M 162.372738 313.158125 
L 178.584835 313.158125 
L 178.584835 86.36936 
L 162.372738 86.36936 
z
" clip-path="url(#p04d63f01d4)" style="fill: #0000ff; opacity: 0.9"/>
   </g>
   <g id="patch_23">
    <path d="M 270.453384 313.158125 
L 286.665481 313.158125 
L 286.665481 115.191111 
L 270.453384 115.191111 
z
" clip-path="url(#p04d63f01d4)" style="fill: #0000ff; opacity: 0.9"/>
   </g>
   <g id="patch_24">
    <path d="M 378.534029 313.158125 
L 394.746126 313.158125 
L 394.746126 93.211829 
L 378.534029 93.211829 
z
" clip-path="url(#p04d63f01d4)" style="fill: #0000ff; opacity: 0.9"/>
   </g>
   <g id="patch_25">
    <path d="M 486.614675 313.158125 
L 502.826772 313.158125 
L 502.826772 222.122752 
L 486.614675 222.122752 
z
" clip-path="url(#p04d63f01d4)" style="fill: #0000ff; opacity: 0.9"/>
   </g>
   <g id="patch_26">
    <path d="M 594.695321 313.158125 
L 610.907417 313.158125 
L 610.907417 181.168681 
L 594.695321 181.168681 
z
" clip-path="url(#p04d63f01d4)" style="fill: #0000ff; opacity: 0.9"/>
   </g>
   <g id="patch_27">
    <path d="M 702.775966 313.158125 
L 718.988063 313.158125 
L 718.988063 166.409326 
L 702.775966 166.409326 
z
" clip-path="url(#p04d63f01d4)" style="fill: #0000ff; opacity: 0.9"/>
   </g>
   <g id="patch_28">
    <path d="M 810.856612 313.158125 
L 827.068708 313.158125 
L 827.068708 156.488902 
L 810.856612 156.488902 
z
" clip-path="url(#p04d63f01d4)" style="fill: #0000ff; opacity: 0.9"/>
   </g>
   <g id="patch_29">
    <path d="M 918.937257 313.158125 
L 935.149354 313.158125 
L 935.149354 125.894153 
L 918.937257 125.894153 
z
" clip-path="url(#p04d63f01d4)" style="fill: #0000ff; opacity: 0.9"/>
   </g>
   <g id="patch_30">
    <path d="M 1027.017903 313.158125 
L 1043.23 313.158125 
L 1043.23 85.580658 
L 1027.017903 85.580658 
z
" clip-path="url(#p04d63f01d4)" style="fill: #0000ff; opacity: 0.9"/>
   </g>
   <g id="patch_31">
    <path d="M 1135.098548 313.158125 
L 1151.310645 313.158125 
L 1151.310645 195.26022 
L 1135.098548 195.26022 
z
" clip-path="url(#p04d63f01d4)" style="fill: #0000ff; opacity: 0.9"/>
   </g>
   <g id="patch_32">
    <path d="M 1243.179194 313.158125 
L 1259.391291 313.158125 
L 1259.391291 68.538212 
L 1243.179194 68.538212 
z
" clip-path="url(#p04d63f01d4)" style="fill: #0000ff; opacity: 0.9"/>
   </g>
   <g id="patch_33">
    <path d="M 1351.259839 313.158125 
L 1367.471936 313.158125 
L 1367.471936 108.616069 
L 1351.259839 108.616069 
z
" clip-path="url(#p04d63f01d4)" style="fill: #0000ff; opacity: 0.9"/>
   </g>
   <g id="patch_34">
    <path d="M 1459.340485 313.158125 
L 1475.552582 313.158125 
L 1475.552582 161.212792 
L 1459.340485 161.212792 
z
" clip-path="url(#p04d63f01d4)" style="fill: #0000ff; opacity: 0.9"/>
   </g>
   <g id="patch_35">
    <path d="M 1567.421131 313.158125 
L 1583.633227 313.158125 
L 1583.633227 95.747264 
L 1567.421131 95.747264 
z
" clip-path="url(#p04d63f01d4)" style="fill: #0000ff; opacity: 0.9"/>
   </g>
   <g id="patch_36">
    <path d="M 1675.501776 313.158125 
L 1691.713873 313.158125 
L 1691.713873 158.341848 
L 1675.501776 158.341848 
z
" clip-path="url(#p04d63f01d4)" style="fill: #0000ff; opacity: 0.9"/>
   </g>
   <g id="patch_37">
    <path d="M 1783.582422 313.158125 
L 1799.794518 313.158125 
L 1799.794518 176.18155 
L 1783.582422 176.18155 
z
" clip-path="url(#p04d63f01d4)" style="fill: #0000ff; opacity: 0.9"/>
   </g>
   <g id="patch_38">
    <path d="M 1891.663067 313.158125 
L 1907.875164 313.158125 
L 1907.875164 169.260668 
L 1891.663067 169.260668 
z
" clip-path="url(#p04d63f01d4)" style="fill: #0000ff; opacity: 0.9"/>
   </g>
   <g id="patch_39">
    <path d="M 1999.743713 313.158125 
L 2015.95581 313.158125 
L 2015.95581 191.91726 
L 1999.743713 191.91726 
z
" clip-path="url(#p04d63f01d4)" style="fill: #0000ff; opacity: 0.9"/>
   </g>
   <g id="patch_40">
    <path d="M 2107.824358 313.158125 
L 2124.036455 313.158125 
L 2124.036455 123.777462 
L 2107.824358 123.777462 
z
" clip-path="url(#p04d63f01d4)" style="fill: #0000ff; opacity: 0.9"/>
   </g>
   <g id="patch_41">
    <path d="M 180.206045 313.158125 
L 196.418142 313.158125 
L 196.418142 167.310159 
L 180.206045 167.310159 
z
" clip-path="url(#p04d63f01d4)" style="fill: #008000; opacity: 0.9"/>
   </g>
   <g id="patch_42">
    <path d="M 288.28669 313.158125 
L 304.498787 313.158125 
L 304.498787 203.824043 
L 288.28669 203.824043 
z
" clip-path="url(#p04d63f01d4)" style="fill: #008000; opacity: 0.9"/>
   </g>
   <g id="patch_43">
    <path d="M 396.367336 313.158125 
L 412.579433 313.158125 
L 412.579433 112.365348 
L 396.367336 112.365348 
z
" clip-path="url(#p04d63f01d4)" style="fill: #008000; opacity: 0.9"/>
   </g>
   <g id="patch_44">
    <path d="M 504.447982 313.158125 
L 520.660078 313.158125 
L 520.660078 265.864074 
L 504.447982 265.864074 
z
" clip-path="url(#p04d63f01d4)" style="fill: #008000; opacity: 0.9"/>
   </g>
   <g id="patch_45">
    <path d="M 612.528627 313.158125 
L 628.740724 313.158125 
L 628.740724 207.562494 
L 612.528627 207.562494 
z
" clip-path="url(#p04d63f01d4)" style="fill: #008000; opacity: 0.9"/>
   </g>
   <g id="patch_46">
    <path d="M 720.609273 313.158125 
L 736.821369 313.158125 
L 736.821369 241.050257 
L 720.609273 241.050257 
z
" clip-path="url(#p04d63f01d4)" style="fill: #008000; opacity: 0.9"/>
   </g>
   <g id="patch_47">
    <path d="M 828.689918 313.158125 
L 844.902015 313.158125 
L 844.902015 313.158125 
L 828.689918 313.158125 
z
" clip-path="url(#p04d63f01d4)" style="fill: #008000; opacity: 0.9"/>
   </g>
   <g id="patch_48">
    <path d="M 936.770564 313.158125 
L 952.982661 313.158125 
L 952.982661 282.013777 
L 936.770564 282.013777 
z
" clip-path="url(#p04d63f01d4)" style="fill: #008000; opacity: 0.9"/>
   </g>
   <g id="patch_49">
    <path d="M 1044.851209 313.158125 
L 1061.063306 313.158125 
L 1061.063306 113.80253 
L 1044.851209 113.80253 
z
" clip-path="url(#p04d63f01d4)" style="fill: #008000; opacity: 0.9"/>
   </g>
   <g id="patch_50">
    <path d="M 1152.931855 313.158125 
L 1169.143952 313.158125 
L 1169.143952 190.249035 
L 1152.931855 190.249035 
z
" clip-path="url(#p04d63f01d4)" style="fill: #008000; opacity: 0.9"/>
   </g>
   <g id="patch_51">
    <path d="M 1261.0125 313.158125 
L 1277.224597 313.158125 
L 1277.224597 85.808485 
L 1261.0125 85.808485 
z
" clip-path="url(#p04d63f01d4)" style="fill: #008000; opacity: 0.9"/>
   </g>
   <g id="patch_52">
    <path d="M 1369.093146 313.158125 
L 1385.305243 313.158125 
L 1385.305243 228.567093 
L 1369.093146 228.567093 
z
" clip-path="url(#p04d63f01d4)" style="fill: #008000; opacity: 0.9"/>
   </g>
   <g id="patch_53">
    <path d="M 1477.173792 313.158125 
L 1493.385888 313.158125 
L 1493.385888 197.706165 
L 1477.173792 197.706165 
z
" clip-path="url(#p04d63f01d4)" style="fill: #008000; opacity: 0.9"/>
   </g>
   <g id="patch_54">
    <path d="M 1585.254437 313.158125 
L 1601.466534 313.158125 
L 1601.466534 95.720824 
L 1585.254437 95.720824 
z
" clip-path="url(#p04d63f01d4)" style="fill: #008000; opacity: 0.9"/>
   </g>
   <g id="patch_55">
    <path d="M 1693.335083 313.158125 
L 1709.547179 313.158125 
L 1709.547179 214.444514 
L 1693.335083 214.444514 
z
" clip-path="url(#p04d63f01d4)" style="fill: #008000; opacity: 0.9"/>
   </g>
   <g id="patch_56">
    <path d="M 1801.415728 313.158125 
L 1817.627825 313.158125 
L 1817.627825 313.158125 
L 1801.415728 313.158125 
z
" clip-path="url(#p04d63f01d4)" style="fill: #008000; opacity: 0.9"/>
   </g>
   <g id="patch_57">
    <path d="M 1909.496374 313.158125 
L 1925.708471 313.158125 
L 1925.708471 313.158125 
L 1909.496374 313.158125 
z
" clip-path="url(#p04d63f01d4)" style="fill: #008000; opacity: 0.9"/>
   </g>
   <g id="patch_58">
    <path d="M 2017.577019 313.158125 
L 2033.789116 313.158125 
L 2033.789116 270.952668 
L 2017.577019 270.952668 
z
" clip-path="url(#p04d63f01d4)" style="fill: #008000; opacity: 0.9"/>
   </g>
   <g id="patch_59">
    <path d="M 2125.657665 313.158125 
L 2141.869762 313.158125 
L 2141.869762 247.300492 
L 2125.657665 247.300492 
z
" clip-path="url(#p04d63f01d4)" style="fill: #008000; opacity: 0.9"/>
   </g>
   <g id="patch_60">
    <path d="M 198.039351 313.158125 
L 214.251448 313.158125 
L 214.251448 85.646803 
L 198.039351 85.646803 
z
" clip-path="url(#p04d63f01d4)" style="fill: #ff0000; opacity: 0.9"/>
   </g>
   <g id="patch_61">
    <path d="M 306.119997 313.158125 
L 322.332094 313.158125 
L 322.332094 160.515079 
L 306.119997 160.515079 
z
" clip-path="url(#p04d63f01d4)" style="fill: #ff0000; opacity: 0.9"/>
   </g>
   <g id="patch_62">
    <path d="M 414.200642 313.158125 
L 430.412739 313.158125 
L 430.412739 99.258247 
L 414.200642 99.258247 
z
" clip-path="url(#p04d63f01d4)" style="fill: #ff0000; opacity: 0.9"/>
   </g>
   <g id="patch_63">
    <path d="M 522.281288 313.158125 
L 538.493385 313.158125 
L 538.493385 244.066589 
L 522.281288 244.066589 
z
" clip-path="url(#p04d63f01d4)" style="fill: #ff0000; opacity: 0.9"/>
   </g>
   <g id="patch_64">
    <path d="M 630.361934 313.158125 
L 646.57403 313.158125 
L 646.57403 194.501186 
L 630.361934 194.501186 
z
" clip-path="url(#p04d63f01d4)" style="fill: #ff0000; opacity: 0.9"/>
   </g>
   <g id="patch_65">
    <path d="M 738.442579 313.158125 
L 754.654676 313.158125 
L 754.654676 230.956204 
L 738.442579 230.956204 
z
" clip-path="url(#p04d63f01d4)" style="fill: #ff0000; opacity: 0.9"/>
   </g>
   <g id="patch_66">
    <path d="M 846.523225 313.158125 
L 862.735322 313.158125 
L 862.735322 313.158125 
L 846.523225 313.158125 
z
" clip-path="url(#p04d63f01d4)" style="fill: #ff0000; opacity: 0.9"/>
   </g>
   <g id="patch_67">
    <path d="M 954.60387 313.158125 
L 970.815967 313.158125 
L 970.815967 267.995236 
L 954.60387 267.995236 
z
" clip-path="url(#p04d63f01d4)" style="fill: #ff0000; opacity: 0.9"/>
   </g>
   <g id="patch_68">
    <path d="M 1062.684516 313.158125 
L 1078.896613 313.158125 
L 1078.896613 93.846025 
L 1062.684516 93.846025 
z
" clip-path="url(#p04d63f01d4)" style="fill: #ff0000; opacity: 0.9"/>
   </g>
   <g id="patch_69">
    <path d="M 1170.765161 313.158125 
L 1186.977258 313.158125 
L 1186.977258 104.417832 
L 1170.765161 104.417832 
z
" clip-path="url(#p04d63f01d4)" style="fill: #ff0000; opacity: 0.9"/>
   </g>
   <g id="patch_70">
    <path d="M 1278.845807 313.158125 
L 1295.057904 313.158125 
L 1295.057904 77.729792 
L 1278.845807 77.729792 
z
" clip-path="url(#p04d63f01d4)" style="fill: #ff0000; opacity: 0.9"/>
   </g>
   <g id="patch_71">
    <path d="M 1386.926452 313.158125 
L 1403.138549 313.158125 
L 1403.138549 186.007311 
L 1386.926452 186.007311 
z
" clip-path="url(#p04d63f01d4)" style="fill: #ff0000; opacity: 0.9"/>
   </g>
   <g id="patch_72">
    <path d="M 1495.007098 313.158125 
L 1511.219195 313.158125 
L 1511.219195 195.889716 
L 1495.007098 195.889716 
z
" clip-path="url(#p04d63f01d4)" style="fill: #ff0000; opacity: 0.9"/>
   </g>
   <g id="patch_73">
    <path d="M 1603.087744 313.158125 
L 1619.29984 313.158125 
L 1619.29984 84.664352 
L 1603.087744 84.664352 
z
" clip-path="url(#p04d63f01d4)" style="fill: #ff0000; opacity: 0.9"/>
   </g>
   <g id="patch_74">
    <path d="M 1711.168389 313.158125 
L 1727.380486 313.158125 
L 1727.380486 194.382207 
L 1711.168389 194.382207 
z
" clip-path="url(#p04d63f01d4)" style="fill: #ff0000; opacity: 0.9"/>
   </g>
   <g id="patch_75">
    <path d="M 1819.249035 313.158125 
L 1835.461132 313.158125 
L 1835.461132 313.158125 
L 1819.249035 313.158125 
z
" clip-path="url(#p04d63f01d4)" style="fill: #ff0000; opacity: 0.9"/>
   </g>
   <g id="patch_76">
    <path d="M 1927.32968 313.158125 
L 1943.541777 313.158125 
L 1943.541777 313.158125 
L 1927.32968 313.158125 
z
" clip-path="url(#p04d63f01d4)" style="fill: #ff0000; opacity: 0.9"/>
   </g>
   <g id="patch_77">
    <path d="M 2035.410326 313.158125 
L 2051.622423 313.158125 
L 2051.622423 166.492743 
L 2035.410326 166.492743 
z
" clip-path="url(#p04d63f01d4)" style="fill: #ff0000; opacity: 0.9"/>
   </g>
   <g id="patch_78">
    <path d="M 2143.490971 313.158125 
L 2159.703068 313.158125 
L 2159.703068 189.698516 
L 2143.490971 189.698516 
z
" clip-path="url(#p04d63f01d4)" style="fill: #ff0000; opacity: 0.9"/>
   </g>
   <g id="matplotlib.axis_1">
    <g id="xtick_1">
     <g id="line2d_1">
      <defs>
       <path id="m648e18d2fa" d="M 0 0 
L 0 3.5 
" style="stroke: #000000; stroke-width: 0.8"/>
      </defs>
      <g>
       <use xlink:href="#m648e18d2fa" x="179.39544" y="313.158125" style="stroke: #000000; stroke-width: 0.8"/>
      </g>
     </g>
     <g id="text_1">
      <!-- road -->
      <g transform="translate(168.154815 327.756562) scale(0.1 -0.1)">
       <defs>
        <path id="DejaVuSans-72" d="M 2631 2963 
Q 2534 3019 2420 3045 
Q 2306 3072 2169 3072 
Q 1681 3072 1420 2755 
Q 1159 2438 1159 1844 
L 1159 0 
L 581 0 
L 581 3500 
L 1159 3500 
L 1159 2956 
Q 1341 3275 1631 3429 
Q 1922 3584 2338 3584 
Q 2397 3584 2469 3576 
Q 2541 3569 2628 3553 
L 2631 2963 
z
" transform="scale(0.015625)"/>
        <path id="DejaVuSans-6f" d="M 1959 3097 
Q 1497 3097 1228 2736 
Q 959 2375 959 1747 
Q 959 1119 1226 758 
Q 1494 397 1959 397 
Q 2419 397 2687 759 
Q 2956 1122 2956 1747 
Q 2956 2369 2687 2733 
Q 2419 3097 1959 3097 
z
M 1959 3584 
Q 2709 3584 3137 3096 
Q 3566 2609 3566 1747 
Q 3566 888 3137 398 
Q 2709 -91 1959 -91 
Q 1206 -91 779 398 
Q 353 888 353 1747 
Q 353 2609 779 3096 
Q 1206 3584 1959 3584 
z
" transform="scale(0.015625)"/>
        <path id="DejaVuSans-61" d="M 2194 1759 
Q 1497 1759 1228 1600 
Q 959 1441 959 1056 
Q 959 750 1161 570 
Q 1363 391 1709 391 
Q 2188 391 2477 730 
Q 2766 1069 2766 1631 
L 2766 1759 
L 2194 1759 
z
M 3341 1997 
L 3341 0 
L 2766 0 
L 2766 531 
Q 2569 213 2275 61 
Q 1981 -91 1556 -91 
Q 1019 -91 701 211 
Q 384 513 384 1019 
Q 384 1609 779 1909 
Q 1175 2209 1959 2209 
L 2766 2209 
L 2766 2266 
Q 2766 2663 2505 2880 
Q 2244 3097 1772 3097 
Q 1472 3097 1187 3025 
Q 903 2953 641 2809 
L 641 3341 
Q 956 3463 1253 3523 
Q 1550 3584 1831 3584 
Q 2591 3584 2966 3190 
Q 3341 2797 3341 1997 
z
" transform="scale(0.015625)"/>
        <path id="DejaVuSans-64" d="M 2906 2969 
L 2906 4863 
L 3481 4863 
L 3481 0 
L 2906 0 
L 2906 525 
Q 2725 213 2448 61 
Q 2172 -91 1784 -91 
Q 1150 -91 751 415 
Q 353 922 353 1747 
Q 353 2572 751 3078 
Q 1150 3584 1784 3584 
Q 2172 3584 2448 3432 
Q 2725 3281 2906 2969 
z
M 947 1747 
Q 947 1113 1208 752 
Q 1469 391 1925 391 
Q 2381 391 2643 752 
Q 2906 1113 2906 1747 
Q 2906 2381 2643 2742 
Q 2381 3103 1925 3103 
Q 1469 3103 1208 2742 
Q 947 2381 947 1747 
z
" transform="scale(0.015625)"/>
       </defs>
       <use xlink:href="#DejaVuSans-72"/>
       <use xlink:href="#DejaVuSans-6f" x="38.863281"/>
       <use xlink:href="#DejaVuSans-61" x="100.044922"/>
       <use xlink:href="#DejaVuSans-64" x="161.324219"/>
      </g>
     </g>
    </g>
    <g id="xtick_2">
     <g id="line2d_2">
      <g>
       <use xlink:href="#m648e18d2fa" x="287.476086" y="313.158125" style="stroke: #000000; stroke-width: 0.8"/>
      </g>
     </g>
     <g id="text_2">
      <!-- sidewalk -->
      <g transform="translate(265.794054 327.756562) scale(0.1 -0.1)">
       <defs>
        <path id="DejaVuSans-73" d="M 2834 3397 
L 2834 2853 
Q 2591 2978 2328 3040 
Q 2066 3103 1784 3103 
Q 1356 3103 1142 2972 
Q 928 2841 928 2578 
Q 928 2378 1081 2264 
Q 1234 2150 1697 2047 
L 1894 2003 
Q 2506 1872 2764 1633 
Q 3022 1394 3022 966 
Q 3022 478 2636 193 
Q 2250 -91 1575 -91 
Q 1294 -91 989 -36 
Q 684 19 347 128 
L 347 722 
Q 666 556 975 473 
Q 1284 391 1588 391 
Q 1994 391 2212 530 
Q 2431 669 2431 922 
Q 2431 1156 2273 1281 
Q 2116 1406 1581 1522 
L 1381 1569 
Q 847 1681 609 1914 
Q 372 2147 372 2553 
Q 372 3047 722 3315 
Q 1072 3584 1716 3584 
Q 2034 3584 2315 3537 
Q 2597 3491 2834 3397 
z
" transform="scale(0.015625)"/>
        <path id="DejaVuSans-69" d="M 603 3500 
L 1178 3500 
L 1178 0 
L 603 0 
L 603 3500 
z
M 603 4863 
L 1178 4863 
L 1178 4134 
L 603 4134 
L 603 4863 
z
" transform="scale(0.015625)"/>
        <path id="DejaVuSans-65" d="M 3597 1894 
L 3597 1613 
L 953 1613 
Q 991 1019 1311 708 
Q 1631 397 2203 397 
Q 2534 397 2845 478 
Q 3156 559 3463 722 
L 3463 178 
Q 3153 47 2828 -22 
Q 2503 -91 2169 -91 
Q 1331 -91 842 396 
Q 353 884 353 1716 
Q 353 2575 817 3079 
Q 1281 3584 2069 3584 
Q 2775 3584 3186 3129 
Q 3597 2675 3597 1894 
z
M 3022 2063 
Q 3016 2534 2758 2815 
Q 2500 3097 2075 3097 
Q 1594 3097 1305 2825 
Q 1016 2553 972 2059 
L 3022 2063 
z
" transform="scale(0.015625)"/>
        <path id="DejaVuSans-77" d="M 269 3500 
L 844 3500 
L 1563 769 
L 2278 3500 
L 2956 3500 
L 3675 769 
L 4391 3500 
L 4966 3500 
L 4050 0 
L 3372 0 
L 2619 2869 
L 1863 0 
L 1184 0 
L 269 3500 
z
" transform="scale(0.015625)"/>
        <path id="DejaVuSans-6c" d="M 603 4863 
L 1178 4863 
L 1178 0 
L 603 0 
L 603 4863 
z
" transform="scale(0.015625)"/>
        <path id="DejaVuSans-6b" d="M 581 4863 
L 1159 4863 
L 1159 1991 
L 2875 3500 
L 3609 3500 
L 1753 1863 
L 3688 0 
L 2938 0 
L 1159 1709 
L 1159 0 
L 581 0 
L 581 4863 
z
" transform="scale(0.015625)"/>
       </defs>
       <use xlink:href="#DejaVuSans-73"/>
       <use xlink:href="#DejaVuSans-69" x="52.099609"/>
       <use xlink:href="#DejaVuSans-64" x="79.882812"/>
       <use xlink:href="#DejaVuSans-65" x="143.359375"/>
       <use xlink:href="#DejaVuSans-77" x="204.882812"/>
       <use xlink:href="#DejaVuSans-61" x="286.669922"/>
       <use xlink:href="#DejaVuSans-6c" x="347.949219"/>
       <use xlink:href="#DejaVuSans-6b" x="375.732422"/>
      </g>
     </g>
    </g>
    <g id="xtick_3">
     <g id="line2d_3">
      <g>
       <use xlink:href="#m648e18d2fa" x="395.556731" y="313.158125" style="stroke: #000000; stroke-width: 0.8"/>
      </g>
     </g>
     <g id="text_3">
      <!-- building -->
      <g transform="translate(375.529387 327.756562) scale(0.1 -0.1)">
       <defs>
        <path id="DejaVuSans-62" d="M 3116 1747 
Q 3116 2381 2855 2742 
Q 2594 3103 2138 3103 
Q 1681 3103 1420 2742 
Q 1159 2381 1159 1747 
Q 1159 1113 1420 752 
Q 1681 391 2138 391 
Q 2594 391 2855 752 
Q 3116 1113 3116 1747 
z
M 1159 2969 
Q 1341 3281 1617 3432 
Q 1894 3584 2278 3584 
Q 2916 3584 3314 3078 
Q 3713 2572 3713 1747 
Q 3713 922 3314 415 
Q 2916 -91 2278 -91 
Q 1894 -91 1617 61 
Q 1341 213 1159 525 
L 1159 0 
L 581 0 
L 581 4863 
L 1159 4863 
L 1159 2969 
z
" transform="scale(0.015625)"/>
        <path id="DejaVuSans-75" d="M 544 1381 
L 544 3500 
L 1119 3500 
L 1119 1403 
Q 1119 906 1312 657 
Q 1506 409 1894 409 
Q 2359 409 2629 706 
Q 2900 1003 2900 1516 
L 2900 3500 
L 3475 3500 
L 3475 0 
L 2900 0 
L 2900 538 
Q 2691 219 2414 64 
Q 2138 -91 1772 -91 
Q 1169 -91 856 284 
Q 544 659 544 1381 
z
M 1991 3584 
L 1991 3584 
z
" transform="scale(0.015625)"/>
        <path id="DejaVuSans-6e" d="M 3513 2113 
L 3513 0 
L 2938 0 
L 2938 2094 
Q 2938 2591 2744 2837 
Q 2550 3084 2163 3084 
Q 1697 3084 1428 2787 
Q 1159 2491 1159 1978 
L 1159 0 
L 581 0 
L 581 3500 
L 1159 3500 
L 1159 2956 
Q 1366 3272 1645 3428 
Q 1925 3584 2291 3584 
Q 2894 3584 3203 3211 
Q 3513 2838 3513 2113 
z
" transform="scale(0.015625)"/>
        <path id="DejaVuSans-67" d="M 2906 1791 
Q 2906 2416 2648 2759 
Q 2391 3103 1925 3103 
Q 1463 3103 1205 2759 
Q 947 2416 947 1791 
Q 947 1169 1205 825 
Q 1463 481 1925 481 
Q 2391 481 2648 825 
Q 2906 1169 2906 1791 
z
M 3481 434 
Q 3481 -459 3084 -895 
Q 2688 -1331 1869 -1331 
Q 1566 -1331 1297 -1286 
Q 1028 -1241 775 -1147 
L 775 -588 
Q 1028 -725 1275 -790 
Q 1522 -856 1778 -856 
Q 2344 -856 2625 -561 
Q 2906 -266 2906 331 
L 2906 616 
Q 2728 306 2450 153 
Q 2172 0 1784 0 
Q 1141 0 747 490 
Q 353 981 353 1791 
Q 353 2603 747 3093 
Q 1141 3584 1784 3584 
Q 2172 3584 2450 3431 
Q 2728 3278 2906 2969 
L 2906 3500 
L 3481 3500 
L 3481 434 
z
" transform="scale(0.015625)"/>
       </defs>
       <use xlink:href="#DejaVuSans-62"/>
       <use xlink:href="#DejaVuSans-75" x="63.476562"/>
       <use xlink:href="#DejaVuSans-69" x="126.855469"/>
       <use xlink:href="#DejaVuSans-6c" x="154.638672"/>
       <use xlink:href="#DejaVuSans-64" x="182.421875"/>
       <use xlink:href="#DejaVuSans-69" x="245.898438"/>
       <use xlink:href="#DejaVuSans-6e" x="273.681641"/>
       <use xlink:href="#DejaVuSans-67" x="337.060547"/>
      </g>
     </g>
    </g>
    <g id="xtick_4">
     <g id="line2d_4">
      <g>
       <use xlink:href="#m648e18d2fa" x="503.637377" y="313.158125" style="stroke: #000000; stroke-width: 0.8"/>
      </g>
     </g>
     <g id="text_4">
      <!-- wall -->
      <g transform="translate(493.706127 327.756562) scale(0.1 -0.1)">
       <use xlink:href="#DejaVuSans-77"/>
       <use xlink:href="#DejaVuSans-61" x="81.787109"/>
       <use xlink:href="#DejaVuSans-6c" x="143.066406"/>
       <use xlink:href="#DejaVuSans-6c" x="170.849609"/>
      </g>
     </g>
    </g>
    <g id="xtick_5">
     <g id="line2d_5">
      <g>
       <use xlink:href="#m648e18d2fa" x="611.718022" y="313.158125" style="stroke: #000000; stroke-width: 0.8"/>
      </g>
     </g>
     <g id="text_5">
      <!-- fence -->
      <g transform="translate(597.886772 327.756562) scale(0.1 -0.1)">
       <defs>
        <path id="DejaVuSans-66" d="M 2375 4863 
L 2375 4384 
L 1825 4384 
Q 1516 4384 1395 4259 
Q 1275 4134 1275 3809 
L 1275 3500 
L 2222 3500 
L 2222 3053 
L 1275 3053 
L 1275 0 
L 697 0 
L 697 3053 
L 147 3053 
L 147 3500 
L 697 3500 
L 697 3744 
Q 697 4328 969 4595 
Q 1241 4863 1831 4863 
L 2375 4863 
z
" transform="scale(0.015625)"/>
        <path id="DejaVuSans-63" d="M 3122 3366 
L 3122 2828 
Q 2878 2963 2633 3030 
Q 2388 3097 2138 3097 
Q 1578 3097 1268 2742 
Q 959 2388 959 1747 
Q 959 1106 1268 751 
Q 1578 397 2138 397 
Q 2388 397 2633 464 
Q 2878 531 3122 666 
L 3122 134 
Q 2881 22 2623 -34 
Q 2366 -91 2075 -91 
Q 1284 -91 818 406 
Q 353 903 353 1747 
Q 353 2603 823 3093 
Q 1294 3584 2113 3584 
Q 2378 3584 2631 3529 
Q 2884 3475 3122 3366 
z
" transform="scale(0.015625)"/>
       </defs>
       <use xlink:href="#DejaVuSans-66"/>
       <use xlink:href="#DejaVuSans-65" x="35.205078"/>
       <use xlink:href="#DejaVuSans-6e" x="96.728516"/>
       <use xlink:href="#DejaVuSans-63" x="160.107422"/>
       <use xlink:href="#DejaVuSans-65" x="215.087891"/>
      </g>
     </g>
    </g>
    <g id="xtick_6">
     <g id="line2d_6">
      <g>
       <use xlink:href="#m648e18d2fa" x="719.798668" y="313.158125" style="stroke: #000000; stroke-width: 0.8"/>
      </g>
     </g>
     <g id="text_6">
      <!-- pole -->
      <g transform="translate(709.099449 327.756562) scale(0.1 -0.1)">
       <defs>
        <path id="DejaVuSans-70" d="M 1159 525 
L 1159 -1331 
L 581 -1331 
L 581 3500 
L 1159 3500 
L 1159 2969 
Q 1341 3281 1617 3432 
Q 1894 3584 2278 3584 
Q 2916 3584 3314 3078 
Q 3713 2572 3713 1747 
Q 3713 922 3314 415 
Q 2916 -91 2278 -91 
Q 1894 -91 1617 61 
Q 1341 213 1159 525 
z
M 3116 1747 
Q 3116 2381 2855 2742 
Q 2594 3103 2138 3103 
Q 1681 3103 1420 2742 
Q 1159 2381 1159 1747 
Q 1159 1113 1420 752 
Q 1681 391 2138 391 
Q 2594 391 2855 752 
Q 3116 1113 3116 1747 
z
" transform="scale(0.015625)"/>
       </defs>
       <use xlink:href="#DejaVuSans-70"/>
       <use xlink:href="#DejaVuSans-6f" x="63.476562"/>
       <use xlink:href="#DejaVuSans-6c" x="124.658203"/>
       <use xlink:href="#DejaVuSans-65" x="152.441406"/>
      </g>
     </g>
    </g>
    <g id="xtick_7">
     <g id="line2d_7">
      <g>
       <use xlink:href="#m648e18d2fa" x="827.879313" y="313.158125" style="stroke: #000000; stroke-width: 0.8"/>
      </g>
     </g>
     <g id="text_7">
      <!-- traffic light -->
      <g transform="translate(800.47072 327.756562) scale(0.1 -0.1)">
       <defs>
        <path id="DejaVuSans-74" d="M 1172 4494 
L 1172 3500 
L 2356 3500 
L 2356 3053 
L 1172 3053 
L 1172 1153 
Q 1172 725 1289 603 
Q 1406 481 1766 481 
L 2356 481 
L 2356 0 
L 1766 0 
Q 1100 0 847 248 
Q 594 497 594 1153 
L 594 3053 
L 172 3053 
L 172 3500 
L 594 3500 
L 594 4494 
L 1172 4494 
z
" transform="scale(0.015625)"/>
        <path id="DejaVuSans-20" transform="scale(0.015625)"/>
        <path id="DejaVuSans-68" d="M 3513 2113 
L 3513 0 
L 2938 0 
L 2938 2094 
Q 2938 2591 2744 2837 
Q 2550 3084 2163 3084 
Q 1697 3084 1428 2787 
Q 1159 2491 1159 1978 
L 1159 0 
L 581 0 
L 581 4863 
L 1159 4863 
L 1159 2956 
Q 1366 3272 1645 3428 
Q 1925 3584 2291 3584 
Q 2894 3584 3203 3211 
Q 3513 2838 3513 2113 
z
" transform="scale(0.015625)"/>
       </defs>
       <use xlink:href="#DejaVuSans-74"/>
       <use xlink:href="#DejaVuSans-72" x="39.208984"/>
       <use xlink:href="#DejaVuSans-61" x="80.322266"/>
       <use xlink:href="#DejaVuSans-66" x="141.601562"/>
       <use xlink:href="#DejaVuSans-66" x="176.806641"/>
       <use xlink:href="#DejaVuSans-69" x="212.011719"/>
       <use xlink:href="#DejaVuSans-63" x="239.794922"/>
       <use xlink:href="#DejaVuSans-20" x="294.775391"/>
       <use xlink:href="#DejaVuSans-6c" x="326.5625"/>
       <use xlink:href="#DejaVuSans-69" x="354.345703"/>
       <use xlink:href="#DejaVuSans-67" x="382.128906"/>
       <use xlink:href="#DejaVuSans-68" x="445.605469"/>
       <use xlink:href="#DejaVuSans-74" x="508.984375"/>
      </g>
     </g>
    </g>
    <g id="xtick_8">
     <g id="line2d_8">
      <g>
       <use xlink:href="#m648e18d2fa" x="935.959959" y="313.158125" style="stroke: #000000; stroke-width: 0.8"/>
      </g>
     </g>
     <g id="text_8">
      <!-- traffic sign -->
      <g transform="translate(909.295896 327.756562) scale(0.1 -0.1)">
       <use xlink:href="#DejaVuSans-74"/>
       <use xlink:href="#DejaVuSans-72" x="39.208984"/>
       <use xlink:href="#DejaVuSans-61" x="80.322266"/>
       <use xlink:href="#DejaVuSans-66" x="141.601562"/>
       <use xlink:href="#DejaVuSans-66" x="176.806641"/>
       <use xlink:href="#DejaVuSans-69" x="212.011719"/>
       <use xlink:href="#DejaVuSans-63" x="239.794922"/>
       <use xlink:href="#DejaVuSans-20" x="294.775391"/>
       <use xlink:href="#DejaVuSans-73" x="326.5625"/>
       <use xlink:href="#DejaVuSans-69" x="378.662109"/>
       <use xlink:href="#DejaVuSans-67" x="406.445312"/>
       <use xlink:href="#DejaVuSans-6e" x="469.921875"/>
      </g>
     </g>
    </g>
    <g id="xtick_9">
     <g id="line2d_9">
      <g>
       <use xlink:href="#m648e18d2fa" x="1044.040604" y="313.158125" style="stroke: #000000; stroke-width: 0.8"/>
      </g>
     </g>
     <g id="text_9">
      <!-- vegetation -->
      <g transform="translate(1017.152323 327.756562) scale(0.1 -0.1)">
       <defs>
        <path id="DejaVuSans-76" d="M 191 3500 
L 800 3500 
L 1894 563 
L 2988 3500 
L 3597 3500 
L 2284 0 
L 1503 0 
L 191 3500 
z
" transform="scale(0.015625)"/>
       </defs>
       <use xlink:href="#DejaVuSans-76"/>
       <use xlink:href="#DejaVuSans-65" x="59.179688"/>
       <use xlink:href="#DejaVuSans-67" x="120.703125"/>
       <use xlink:href="#DejaVuSans-65" x="184.179688"/>
       <use xlink:href="#DejaVuSans-74" x="245.703125"/>
       <use xlink:href="#DejaVuSans-61" x="284.912109"/>
       <use xlink:href="#DejaVuSans-74" x="346.191406"/>
       <use xlink:href="#DejaVuSans-69" x="385.400391"/>
       <use xlink:href="#DejaVuSans-6f" x="413.183594"/>
       <use xlink:href="#DejaVuSans-6e" x="474.365234"/>
      </g>
     </g>
    </g>
    <g id="xtick_10">
     <g id="line2d_10">
      <g>
       <use xlink:href="#m648e18d2fa" x="1152.12125" y="313.158125" style="stroke: #000000; stroke-width: 0.8"/>
      </g>
     </g>
     <g id="text_10">
      <!-- terrain -->
      <g transform="translate(1135.439219 327.756562) scale(0.1 -0.1)">
       <use xlink:href="#DejaVuSans-74"/>
       <use xlink:href="#DejaVuSans-65" x="39.208984"/>
       <use xlink:href="#DejaVuSans-72" x="100.732422"/>
       <use xlink:href="#DejaVuSans-72" x="140.095703"/>
       <use xlink:href="#DejaVuSans-61" x="181.208984"/>
       <use xlink:href="#DejaVuSans-69" x="242.488281"/>
       <use xlink:href="#DejaVuSans-6e" x="270.271484"/>
      </g>
     </g>
    </g>
    <g id="xtick_11">
     <g id="line2d_11">
      <g>
       <use xlink:href="#m648e18d2fa" x="1260.201896" y="313.158125" style="stroke: #000000; stroke-width: 0.8"/>
      </g>
     </g>
     <g id="text_11">
      <!-- sky -->
      <g transform="translate(1251.923771 327.756562) scale(0.1 -0.1)">
       <defs>
        <path id="DejaVuSans-79" d="M 2059 -325 
Q 1816 -950 1584 -1140 
Q 1353 -1331 966 -1331 
L 506 -1331 
L 506 -850 
L 844 -850 
Q 1081 -850 1212 -737 
Q 1344 -625 1503 -206 
L 1606 56 
L 191 3500 
L 800 3500 
L 1894 763 
L 2988 3500 
L 3597 3500 
L 2059 -325 
z
" transform="scale(0.015625)"/>
       </defs>
       <use xlink:href="#DejaVuSans-73"/>
       <use xlink:href="#DejaVuSans-6b" x="52.099609"/>
       <use xlink:href="#DejaVuSans-79" x="106.384766"/>
      </g>
     </g>
    </g>
    <g id="xtick_12">
     <g id="line2d_12">
      <g>
       <use xlink:href="#m648e18d2fa" x="1368.282541" y="313.158125" style="stroke: #000000; stroke-width: 0.8"/>
      </g>
     </g>
     <g id="text_12">
      <!-- person -->
      <g transform="translate(1351.143479 327.756562) scale(0.1 -0.1)">
       <use xlink:href="#DejaVuSans-70"/>
       <use xlink:href="#DejaVuSans-65" x="63.476562"/>
       <use xlink:href="#DejaVuSans-72" x="125"/>
       <use xlink:href="#DejaVuSans-73" x="166.113281"/>
       <use xlink:href="#DejaVuSans-6f" x="218.212891"/>
       <use xlink:href="#DejaVuSans-6e" x="279.394531"/>
      </g>
     </g>
    </g>
    <g id="xtick_13">
     <g id="line2d_13">
      <g>
       <use xlink:href="#m648e18d2fa" x="1476.363187" y="313.158125" style="stroke: #000000; stroke-width: 0.8"/>
      </g>
     </g>
     <g id="text_13">
      <!-- rider -->
      <g transform="translate(1464.612405 327.756562) scale(0.1 -0.1)">
       <use xlink:href="#DejaVuSans-72"/>
       <use xlink:href="#DejaVuSans-69" x="41.113281"/>
       <use xlink:href="#DejaVuSans-64" x="68.896484"/>
       <use xlink:href="#DejaVuSans-65" x="132.373047"/>
       <use xlink:href="#DejaVuSans-72" x="193.896484"/>
      </g>
     </g>
    </g>
    <g id="xtick_14">
     <g id="line2d_14">
      <g>
       <use xlink:href="#m648e18d2fa" x="1584.443832" y="313.158125" style="stroke: #000000; stroke-width: 0.8"/>
      </g>
     </g>
     <g id="text_14">
      <!-- car -->
      <g transform="translate(1576.575082 327.756562) scale(0.1 -0.1)">
       <use xlink:href="#DejaVuSans-63"/>
       <use xlink:href="#DejaVuSans-61" x="54.980469"/>
       <use xlink:href="#DejaVuSans-72" x="116.259766"/>
      </g>
     </g>
    </g>
    <g id="xtick_15">
     <g id="line2d_15">
      <g>
       <use xlink:href="#m648e18d2fa" x="1692.524478" y="313.158125" style="stroke: #000000; stroke-width: 0.8"/>
      </g>
     </g>
     <g id="text_15">
      <!-- truck -->
      <g transform="translate(1679.695572 327.756562) scale(0.1 -0.1)">
       <use xlink:href="#DejaVuSans-74"/>
       <use xlink:href="#DejaVuSans-72" x="39.208984"/>
       <use xlink:href="#DejaVuSans-75" x="80.322266"/>
       <use xlink:href="#DejaVuSans-63" x="143.701172"/>
       <use xlink:href="#DejaVuSans-6b" x="198.681641"/>
      </g>
     </g>
    </g>
    <g id="xtick_16">
     <g id="line2d_16">
      <g>
       <use xlink:href="#m648e18d2fa" x="1800.605123" y="313.158125" style="stroke: #000000; stroke-width: 0.8"/>
      </g>
     </g>
     <g id="text_16">
      <!-- bus -->
      <g transform="translate(1791.657467 327.756562) scale(0.1 -0.1)">
       <use xlink:href="#DejaVuSans-62"/>
       <use xlink:href="#DejaVuSans-75" x="63.476562"/>
       <use xlink:href="#DejaVuSans-73" x="126.855469"/>
      </g>
     </g>
    </g>
    <g id="xtick_17">
     <g id="line2d_17">
      <g>
       <use xlink:href="#m648e18d2fa" x="1908.685769" y="313.158125" style="stroke: #000000; stroke-width: 0.8"/>
      </g>
     </g>
     <g id="text_17">
      <!-- train -->
      <g transform="translate(1897.048269 327.756562) scale(0.1 -0.1)">
       <use xlink:href="#DejaVuSans-74"/>
       <use xlink:href="#DejaVuSans-72" x="39.208984"/>
       <use xlink:href="#DejaVuSans-61" x="80.322266"/>
       <use xlink:href="#DejaVuSans-69" x="141.601562"/>
       <use xlink:href="#DejaVuSans-6e" x="169.384766"/>
      </g>
     </g>
    </g>
    <g id="xtick_18">
     <g id="line2d_18">
      <g>
       <use xlink:href="#m648e18d2fa" x="2016.766414" y="313.158125" style="stroke: #000000; stroke-width: 0.8"/>
      </g>
     </g>
     <g id="text_18">
      <!-- motorcycle -->
      <g transform="translate(1988.950789 327.756562) scale(0.1 -0.1)">
       <defs>
        <path id="DejaVuSans-6d" d="M 3328 2828 
Q 3544 3216 3844 3400 
Q 4144 3584 4550 3584 
Q 5097 3584 5394 3201 
Q 5691 2819 5691 2113 
L 5691 0 
L 5113 0 
L 5113 2094 
Q 5113 2597 4934 2840 
Q 4756 3084 4391 3084 
Q 3944 3084 3684 2787 
Q 3425 2491 3425 1978 
L 3425 0 
L 2847 0 
L 2847 2094 
Q 2847 2600 2669 2842 
Q 2491 3084 2119 3084 
Q 1678 3084 1418 2786 
Q 1159 2488 1159 1978 
L 1159 0 
L 581 0 
L 581 3500 
L 1159 3500 
L 1159 2956 
Q 1356 3278 1631 3431 
Q 1906 3584 2284 3584 
Q 2666 3584 2933 3390 
Q 3200 3197 3328 2828 
z
" transform="scale(0.015625)"/>
       </defs>
       <use xlink:href="#DejaVuSans-6d"/>
       <use xlink:href="#DejaVuSans-6f" x="97.412109"/>
       <use xlink:href="#DejaVuSans-74" x="158.59375"/>
       <use xlink:href="#DejaVuSans-6f" x="197.802734"/>
       <use xlink:href="#DejaVuSans-72" x="258.984375"/>
       <use xlink:href="#DejaVuSans-63" x="297.847656"/>
       <use xlink:href="#DejaVuSans-79" x="352.828125"/>
       <use xlink:href="#DejaVuSans-63" x="412.007812"/>
       <use xlink:href="#DejaVuSans-6c" x="466.988281"/>
       <use xlink:href="#DejaVuSans-65" x="494.771484"/>
      </g>
     </g>
    </g>
    <g id="xtick_19">
     <g id="line2d_19">
      <g>
       <use xlink:href="#m648e18d2fa" x="2124.84706" y="313.158125" style="stroke: #000000; stroke-width: 0.8"/>
      </g>
     </g>
     <g id="text_19">
      <!-- bicycle -->
      <g transform="translate(2107.360341 327.756562) scale(0.1 -0.1)">
       <use xlink:href="#DejaVuSans-62"/>
       <use xlink:href="#DejaVuSans-69" x="63.476562"/>
       <use xlink:href="#DejaVuSans-63" x="91.259766"/>
       <use xlink:href="#DejaVuSans-79" x="146.240234"/>
       <use xlink:href="#DejaVuSans-63" x="205.419922"/>
       <use xlink:href="#DejaVuSans-6c" x="260.400391"/>
       <use xlink:href="#DejaVuSans-65" x="288.183594"/>
      </g>
     </g>
    </g>
   </g>
   <g id="matplotlib.axis_2">
    <g id="ytick_1">
     <g id="line2d_20">
      <defs>
       <path id="m292bd5cc11" d="M 0 0 
L -3.5 0 
" style="stroke: #000000; stroke-width: 0.8"/>
      </defs>
      <g>
       <use xlink:href="#m292bd5cc11" x="43.78125" y="313.158125" style="stroke: #000000; stroke-width: 0.8"/>
      </g>
     </g>
     <g id="text_20">
      <!-- 0.0 -->
      <g transform="translate(20.878125 316.957344) scale(0.1 -0.1)">
       <defs>
        <path id="DejaVuSans-30" d="M 2034 4250 
Q 1547 4250 1301 3770 
Q 1056 3291 1056 2328 
Q 1056 1369 1301 889 
Q 1547 409 2034 409 
Q 2525 409 2770 889 
Q 3016 1369 3016 2328 
Q 3016 3291 2770 3770 
Q 2525 4250 2034 4250 
z
M 2034 4750 
Q 2819 4750 3233 4129 
Q 3647 3509 3647 2328 
Q 3647 1150 3233 529 
Q 2819 -91 2034 -91 
Q 1250 -91 836 529 
Q 422 1150 422 2328 
Q 422 3509 836 4129 
Q 1250 4750 2034 4750 
z
" transform="scale(0.015625)"/>
        <path id="DejaVuSans-2e" d="M 684 794 
L 1344 794 
L 1344 0 
L 684 0 
L 684 794 
z
" transform="scale(0.015625)"/>
       </defs>
       <use xlink:href="#DejaVuSans-30"/>
       <use xlink:href="#DejaVuSans-2e" x="63.623047"/>
       <use xlink:href="#DejaVuSans-30" x="95.410156"/>
      </g>
     </g>
    </g>
    <g id="ytick_2">
     <g id="line2d_21">
      <g>
       <use xlink:href="#m292bd5cc11" x="43.78125" y="260.278125" style="stroke: #000000; stroke-width: 0.8"/>
      </g>
     </g>
     <g id="text_21">
      <!-- 0.2 -->
      <g transform="translate(20.878125 264.077344) scale(0.1 -0.1)">
       <defs>
        <path id="DejaVuSans-32" d="M 1228 531 
L 3431 531 
L 3431 0 
L 469 0 
L 469 531 
Q 828 903 1448 1529 
Q 2069 2156 2228 2338 
Q 2531 2678 2651 2914 
Q 2772 3150 2772 3378 
Q 2772 3750 2511 3984 
Q 2250 4219 1831 4219 
Q 1534 4219 1204 4116 
Q 875 4013 500 3803 
L 500 4441 
Q 881 4594 1212 4672 
Q 1544 4750 1819 4750 
Q 2544 4750 2975 4387 
Q 3406 4025 3406 3419 
Q 3406 3131 3298 2873 
Q 3191 2616 2906 2266 
Q 2828 2175 2409 1742 
Q 1991 1309 1228 531 
z
" transform="scale(0.015625)"/>
       </defs>
       <use xlink:href="#DejaVuSans-30"/>
       <use xlink:href="#DejaVuSans-2e" x="63.623047"/>
       <use xlink:href="#DejaVuSans-32" x="95.410156"/>
      </g>
     </g>
    </g>
    <g id="ytick_3">
     <g id="line2d_22">
      <g>
       <use xlink:href="#m292bd5cc11" x="43.78125" y="207.398125" style="stroke: #000000; stroke-width: 0.8"/>
      </g>
     </g>
     <g id="text_22">
      <!-- 0.4 -->
      <g transform="translate(20.878125 211.197344) scale(0.1 -0.1)">
       <defs>
        <path id="DejaVuSans-34" d="M 2419 4116 
L 825 1625 
L 2419 1625 
L 2419 4116 
z
M 2253 4666 
L 3047 4666 
L 3047 1625 
L 3713 1625 
L 3713 1100 
L 3047 1100 
L 3047 0 
L 2419 0 
L 2419 1100 
L 313 1100 
L 313 1709 
L 2253 4666 
z
" transform="scale(0.015625)"/>
       </defs>
       <use xlink:href="#DejaVuSans-30"/>
       <use xlink:href="#DejaVuSans-2e" x="63.623047"/>
       <use xlink:href="#DejaVuSans-34" x="95.410156"/>
      </g>
     </g>
    </g>
    <g id="ytick_4">
     <g id="line2d_23">
      <g>
       <use xlink:href="#m292bd5cc11" x="43.78125" y="154.518125" style="stroke: #000000; stroke-width: 0.8"/>
      </g>
     </g>
     <g id="text_23">
      <!-- 0.6 -->
      <g transform="translate(20.878125 158.317344) scale(0.1 -0.1)">
       <defs>
        <path id="DejaVuSans-36" d="M 2113 2584 
Q 1688 2584 1439 2293 
Q 1191 2003 1191 1497 
Q 1191 994 1439 701 
Q 1688 409 2113 409 
Q 2538 409 2786 701 
Q 3034 994 3034 1497 
Q 3034 2003 2786 2293 
Q 2538 2584 2113 2584 
z
M 3366 4563 
L 3366 3988 
Q 3128 4100 2886 4159 
Q 2644 4219 2406 4219 
Q 1781 4219 1451 3797 
Q 1122 3375 1075 2522 
Q 1259 2794 1537 2939 
Q 1816 3084 2150 3084 
Q 2853 3084 3261 2657 
Q 3669 2231 3669 1497 
Q 3669 778 3244 343 
Q 2819 -91 2113 -91 
Q 1303 -91 875 529 
Q 447 1150 447 2328 
Q 447 3434 972 4092 
Q 1497 4750 2381 4750 
Q 2619 4750 2861 4703 
Q 3103 4656 3366 4563 
z
" transform="scale(0.015625)"/>
       </defs>
       <use xlink:href="#DejaVuSans-30"/>
       <use xlink:href="#DejaVuSans-2e" x="63.623047"/>
       <use xlink:href="#DejaVuSans-36" x="95.410156"/>
      </g>
     </g>
    </g>
    <g id="ytick_5">
     <g id="line2d_24">
      <g>
       <use xlink:href="#m292bd5cc11" x="43.78125" y="101.638125" style="stroke: #000000; stroke-width: 0.8"/>
      </g>
     </g>
     <g id="text_24">
      <!-- 0.8 -->
      <g transform="translate(20.878125 105.437344) scale(0.1 -0.1)">
       <defs>
        <path id="DejaVuSans-38" d="M 2034 2216 
Q 1584 2216 1326 1975 
Q 1069 1734 1069 1313 
Q 1069 891 1326 650 
Q 1584 409 2034 409 
Q 2484 409 2743 651 
Q 3003 894 3003 1313 
Q 3003 1734 2745 1975 
Q 2488 2216 2034 2216 
z
M 1403 2484 
Q 997 2584 770 2862 
Q 544 3141 544 3541 
Q 544 4100 942 4425 
Q 1341 4750 2034 4750 
Q 2731 4750 3128 4425 
Q 3525 4100 3525 3541 
Q 3525 3141 3298 2862 
Q 3072 2584 2669 2484 
Q 3125 2378 3379 2068 
Q 3634 1759 3634 1313 
Q 3634 634 3220 271 
Q 2806 -91 2034 -91 
Q 1263 -91 848 271 
Q 434 634 434 1313 
Q 434 1759 690 2068 
Q 947 2378 1403 2484 
z
M 1172 3481 
Q 1172 3119 1398 2916 
Q 1625 2713 2034 2713 
Q 2441 2713 2670 2916 
Q 2900 3119 2900 3481 
Q 2900 3844 2670 4047 
Q 2441 4250 2034 4250 
Q 1625 4250 1398 4047 
Q 1172 3844 1172 3481 
z
" transform="scale(0.015625)"/>
       </defs>
       <use xlink:href="#DejaVuSans-30"/>
       <use xlink:href="#DejaVuSans-2e" x="63.623047"/>
       <use xlink:href="#DejaVuSans-38" x="95.410156"/>
      </g>
     </g>
    </g>
    <g id="ytick_6">
     <g id="line2d_25">
      <g>
       <use xlink:href="#m292bd5cc11" x="43.78125" y="48.758125" style="stroke: #000000; stroke-width: 0.8"/>
      </g>
     </g>
     <g id="text_25">
      <!-- 1.0 -->
      <g transform="translate(20.878125 52.557344) scale(0.1 -0.1)">
       <defs>
        <path id="DejaVuSans-31" d="M 794 531 
L 1825 531 
L 1825 4091 
L 703 3866 
L 703 4441 
L 1819 4666 
L 2450 4666 
L 2450 531 
L 3481 531 
L 3481 0 
L 794 0 
L 794 531 
z
" transform="scale(0.015625)"/>
       </defs>
       <use xlink:href="#DejaVuSans-31"/>
       <use xlink:href="#DejaVuSans-2e" x="63.623047"/>
       <use xlink:href="#DejaVuSans-30" x="95.410156"/>
      </g>
     </g>
    </g>
    <g id="text_26">
     <!-- IoU -->
     <g transform="translate(14.798438 175.931875) rotate(-90) scale(0.1 -0.1)">
      <defs>
       <path id="DejaVuSans-49" d="M 628 4666 
L 1259 4666 
L 1259 0 
L 628 0 
L 628 4666 
z
" transform="scale(0.015625)"/>
       <path id="DejaVuSans-55" d="M 556 4666 
L 1191 4666 
L 1191 1831 
Q 1191 1081 1462 751 
Q 1734 422 2344 422 
Q 2950 422 3222 751 
Q 3494 1081 3494 1831 
L 3494 4666 
L 4128 4666 
L 4128 1753 
Q 4128 841 3676 375 
Q 3225 -91 2344 -91 
Q 1459 -91 1007 375 
Q 556 841 556 1753 
L 556 4666 
z
" transform="scale(0.015625)"/>
      </defs>
      <use xlink:href="#DejaVuSans-49"/>
      <use xlink:href="#DejaVuSans-6f" x="29.492188"/>
      <use xlink:href="#DejaVuSans-55" x="90.673828"/>
     </g>
    </g>
   </g>
   <g id="patch_79">
    <path d="M 43.78125 313.158125 
L 43.78125 22.318125 
" style="fill: none; stroke: #000000; stroke-width: 0.8; stroke-linejoin: miter; stroke-linecap: square"/>
   </g>
   <g id="patch_80">
    <path d="M 2260.46125 313.158125 
L 2260.46125 22.318125 
" style="fill: none; stroke: #000000; stroke-width: 0.8; stroke-linejoin: miter; stroke-linecap: square"/>
   </g>
   <g id="patch_81">
    <path d="M 43.78125 313.158125 
L 2260.46125 313.158125 
" style="fill: none; stroke: #000000; stroke-width: 0.8; stroke-linejoin: miter; stroke-linecap: square"/>
   </g>
   <g id="patch_82">
    <path d="M 43.78125 22.318125 
L 2260.46125 22.318125 
" style="fill: none; stroke: #000000; stroke-width: 0.8; stroke-linejoin: miter; stroke-linecap: square"/>
   </g>
   <g id="text_27">
    <!-- 0.98 -->
    <g transform="translate(155.404855 46.182402) rotate(-90) scale(0.1 -0.1)">
     <defs>
      <path id="DejaVuSans-39" d="M 703 97 
L 703 672 
Q 941 559 1184 500 
Q 1428 441 1663 441 
Q 2288 441 2617 861 
Q 2947 1281 2994 2138 
Q 2813 1869 2534 1725 
Q 2256 1581 1919 1581 
Q 1219 1581 811 2004 
Q 403 2428 403 3163 
Q 403 3881 828 4315 
Q 1253 4750 1959 4750 
Q 2769 4750 3195 4129 
Q 3622 3509 3622 2328 
Q 3622 1225 3098 567 
Q 2575 -91 1691 -91 
Q 1453 -91 1209 -44 
Q 966 3 703 97 
z
M 1959 2075 
Q 2384 2075 2632 2365 
Q 2881 2656 2881 3163 
Q 2881 3666 2632 3958 
Q 2384 4250 1959 4250 
Q 1534 4250 1286 3958 
Q 1038 3666 1038 3163 
Q 1038 2656 1286 2365 
Q 1534 2075 1959 2075 
z
" transform="scale(0.015625)"/>
     </defs>
     <use xlink:href="#DejaVuSans-30"/>
     <use xlink:href="#DejaVuSans-2e" x="63.623047"/>
     <use xlink:href="#DejaVuSans-39" x="95.410156"/>
     <use xlink:href="#DejaVuSans-38" x="159.033203"/>
    </g>
   </g>
   <g id="text_28">
    <!-- 0.84 -->
    <g transform="translate(263.485501 83.995378) rotate(-90) scale(0.1 -0.1)">
     <use xlink:href="#DejaVuSans-30"/>
     <use xlink:href="#DejaVuSans-2e" x="63.623047"/>
     <use xlink:href="#DejaVuSans-38" x="95.410156"/>
     <use xlink:href="#DejaVuSans-34" x="159.033203"/>
    </g>
   </g>
   <g id="text_29">
    <!-- 0.92 -->
    <g transform="translate(371.566146 63.013472) rotate(-90) scale(0.1 -0.1)">
     <use xlink:href="#DejaVuSans-30"/>
     <use xlink:href="#DejaVuSans-2e" x="63.623047"/>
     <use xlink:href="#DejaVuSans-39" x="95.410156"/>
     <use xlink:href="#DejaVuSans-32" x="159.033203"/>
    </g>
   </g>
   <g id="text_30">
    <!-- 0.44 -->
    <g transform="translate(479.646792 189.844998) rotate(-90) scale(0.1 -0.1)">
     <use xlink:href="#DejaVuSans-30"/>
     <use xlink:href="#DejaVuSans-2e" x="63.623047"/>
     <use xlink:href="#DejaVuSans-34" x="95.410156"/>
     <use xlink:href="#DejaVuSans-34" x="159.033203"/>
    </g>
   </g>
   <g id="text_31">
    <!-- 0.53 -->
    <g transform="translate(587.727437 164.314989) rotate(-90) scale(0.1 -0.1)">
     <defs>
      <path id="DejaVuSans-35" d="M 691 4666 
L 3169 4666 
L 3169 4134 
L 1269 4134 
L 1269 2991 
Q 1406 3038 1543 3061 
Q 1681 3084 1819 3084 
Q 2600 3084 3056 2656 
Q 3513 2228 3513 1497 
Q 3513 744 3044 326 
Q 2575 -91 1722 -91 
Q 1428 -91 1123 -41 
Q 819 9 494 109 
L 494 744 
Q 775 591 1075 516 
Q 1375 441 1709 441 
Q 2250 441 2565 725 
Q 2881 1009 2881 1497 
Q 2881 1984 2565 2268 
Q 2250 2553 1709 2553 
Q 1456 2553 1204 2497 
Q 953 2441 691 2322 
L 691 4666 
z
" transform="scale(0.015625)"/>
      <path id="DejaVuSans-33" d="M 2597 2516 
Q 3050 2419 3304 2112 
Q 3559 1806 3559 1356 
Q 3559 666 3084 287 
Q 2609 -91 1734 -91 
Q 1441 -91 1130 -33 
Q 819 25 488 141 
L 488 750 
Q 750 597 1062 519 
Q 1375 441 1716 441 
Q 2309 441 2620 675 
Q 2931 909 2931 1356 
Q 2931 1769 2642 2001 
Q 2353 2234 1838 2234 
L 1294 2234 
L 1294 2753 
L 1863 2753 
Q 2328 2753 2575 2939 
Q 2822 3125 2822 3475 
Q 2822 3834 2567 4026 
Q 2313 4219 1838 4219 
Q 1578 4219 1281 4162 
Q 984 4106 628 3988 
L 628 4550 
Q 988 4650 1302 4700 
Q 1616 4750 1894 4750 
Q 2613 4750 3031 4423 
Q 3450 4097 3450 3541 
Q 3450 3153 3228 2886 
Q 3006 2619 2597 2516 
z
" transform="scale(0.015625)"/>
     </defs>
     <use xlink:href="#DejaVuSans-30"/>
     <use xlink:href="#DejaVuSans-2e" x="63.623047"/>
     <use xlink:href="#DejaVuSans-35" x="95.410156"/>
     <use xlink:href="#DejaVuSans-33" x="159.033203"/>
    </g>
   </g>
   <g id="text_32">
    <!-- 0.61 -->
    <g transform="translate(695.808083 142.612423) rotate(-90) scale(0.1 -0.1)">
     <use xlink:href="#DejaVuSans-30"/>
     <use xlink:href="#DejaVuSans-2e" x="63.623047"/>
     <use xlink:href="#DejaVuSans-36" x="95.410156"/>
     <use xlink:href="#DejaVuSans-31" x="159.033203"/>
    </g>
   </g>
   <g id="text_33">
    <!-- 0.68 -->
    <g transform="translate(803.888729 126.344702) rotate(-90) scale(0.1 -0.1)">
     <use xlink:href="#DejaVuSans-30"/>
     <use xlink:href="#DejaVuSans-2e" x="63.623047"/>
     <use xlink:href="#DejaVuSans-36" x="95.410156"/>
     <use xlink:href="#DejaVuSans-38" x="159.033203"/>
    </g>
   </g>
   <g id="text_34">
    <!-- 0.77 -->
    <g transform="translate(911.969374 101.379771) rotate(-90) scale(0.1 -0.1)">
     <defs>
      <path id="DejaVuSans-37" d="M 525 4666 
L 3525 4666 
L 3525 4397 
L 1831 0 
L 1172 0 
L 2766 4134 
L 525 4134 
L 525 4666 
z
" transform="scale(0.015625)"/>
     </defs>
     <use xlink:href="#DejaVuSans-30"/>
     <use xlink:href="#DejaVuSans-2e" x="63.623047"/>
     <use xlink:href="#DejaVuSans-37" x="95.410156"/>
     <use xlink:href="#DejaVuSans-37" x="159.033203"/>
    </g>
   </g>
   <g id="text_35">
    <!-- 0.92 -->
    <g transform="translate(1020.05002 62.743876) rotate(-90) scale(0.1 -0.1)">
     <use xlink:href="#DejaVuSans-30"/>
     <use xlink:href="#DejaVuSans-2e" x="63.623047"/>
     <use xlink:href="#DejaVuSans-39" x="95.410156"/>
     <use xlink:href="#DejaVuSans-32" x="159.033203"/>
    </g>
   </g>
   <g id="text_36">
    <!-- 0.60 -->
    <g transform="translate(1128.130665 145.736997) rotate(-90) scale(0.1 -0.1)">
     <use xlink:href="#DejaVuSans-30"/>
     <use xlink:href="#DejaVuSans-2e" x="63.623047"/>
     <use xlink:href="#DejaVuSans-36" x="95.410156"/>
     <use xlink:href="#DejaVuSans-30" x="159.033203"/>
    </g>
   </g>
   <g id="text_37">
    <!-- 0.95 -->
    <g transform="translate(1236.211311 54.854414) rotate(-90) scale(0.1 -0.1)">
     <use xlink:href="#DejaVuSans-30"/>
     <use xlink:href="#DejaVuSans-2e" x="63.623047"/>
     <use xlink:href="#DejaVuSans-39" x="95.410156"/>
     <use xlink:href="#DejaVuSans-35" x="159.033203"/>
    </g>
   </g>
   <g id="text_38">
    <!-- 0.80 -->
    <g transform="translate(1344.291956 92.539706) rotate(-90) scale(0.1 -0.1)">
     <use xlink:href="#DejaVuSans-30"/>
     <use xlink:href="#DejaVuSans-2e" x="63.623047"/>
     <use xlink:href="#DejaVuSans-38" x="95.410156"/>
     <use xlink:href="#DejaVuSans-30" x="159.033203"/>
    </g>
   </g>
   <g id="text_39">
    <!-- 0.60 -->
    <g transform="translate(1452.372602 145.354232) rotate(-90) scale(0.1 -0.1)">
     <use xlink:href="#DejaVuSans-30"/>
     <use xlink:href="#DejaVuSans-2e" x="63.623047"/>
     <use xlink:href="#DejaVuSans-36" x="95.410156"/>
     <use xlink:href="#DejaVuSans-30" x="159.033203"/>
    </g>
   </g>
   <g id="text_40">
    <!-- 0.94 -->
    <g transform="translate(1560.453247 57.455822) rotate(-90) scale(0.1 -0.1)">
     <use xlink:href="#DejaVuSans-30"/>
     <use xlink:href="#DejaVuSans-2e" x="63.623047"/>
     <use xlink:href="#DejaVuSans-39" x="95.410156"/>
     <use xlink:href="#DejaVuSans-34" x="159.033203"/>
    </g>
   </g>
   <g id="text_41">
    <!-- 0.66 -->
    <g transform="translate(1668.533893 130.592161) rotate(-90) scale(0.1 -0.1)">
     <use xlink:href="#DejaVuSans-30"/>
     <use xlink:href="#DejaVuSans-2e" x="63.623047"/>
     <use xlink:href="#DejaVuSans-36" x="95.410156"/>
     <use xlink:href="#DejaVuSans-36" x="159.033203"/>
    </g>
   </g>
   <g id="text_42">
    <!-- 0.76 -->
    <g transform="translate(1776.614539 105.517369) rotate(-90) scale(0.1 -0.1)">
     <use xlink:href="#DejaVuSans-30"/>
     <use xlink:href="#DejaVuSans-2e" x="63.623047"/>
     <use xlink:href="#DejaVuSans-37" x="95.410156"/>
     <use xlink:href="#DejaVuSans-36" x="159.033203"/>
    </g>
   </g>
   <g id="text_43">
    <!-- 0.65 -->
    <g transform="translate(1884.695184 132.013312) rotate(-90) scale(0.1 -0.1)">
     <use xlink:href="#DejaVuSans-30"/>
     <use xlink:href="#DejaVuSans-2e" x="63.623047"/>
     <use xlink:href="#DejaVuSans-36" x="95.410156"/>
     <use xlink:href="#DejaVuSans-35" x="159.033203"/>
    </g>
   </g>
   <g id="text_44">
    <!-- 0.57 -->
    <g transform="translate(1992.77583 153.336188) rotate(-90) scale(0.1 -0.1)">
     <use xlink:href="#DejaVuSans-30"/>
     <use xlink:href="#DejaVuSans-2e" x="63.623047"/>
     <use xlink:href="#DejaVuSans-35" x="95.410156"/>
     <use xlink:href="#DejaVuSans-37" x="159.033203"/>
    </g>
   </g>
   <g id="text_45">
    <!-- 0.76 -->
    <g transform="translate(2100.856475 105.296293) rotate(-90) scale(0.1 -0.1)">
     <use xlink:href="#DejaVuSans-30"/>
     <use xlink:href="#DejaVuSans-2e" x="63.623047"/>
     <use xlink:href="#DejaVuSans-37" x="95.410156"/>
     <use xlink:href="#DejaVuSans-36" x="159.033203"/>
    </g>
   </g>
   <g id="text_46">
    <!-- 0.86 -->
    <g transform="translate(173.238162 78.36936) rotate(-90) scale(0.1 -0.1)">
     <use xlink:href="#DejaVuSans-30"/>
     <use xlink:href="#DejaVuSans-2e" x="63.623047"/>
     <use xlink:href="#DejaVuSans-38" x="95.410156"/>
     <use xlink:href="#DejaVuSans-36" x="159.033203"/>
    </g>
   </g>
   <g id="text_47">
    <!-- 0.75 -->
    <g transform="translate(281.318807 107.191111) rotate(-90) scale(0.1 -0.1)">
     <use xlink:href="#DejaVuSans-30"/>
     <use xlink:href="#DejaVuSans-2e" x="63.623047"/>
     <use xlink:href="#DejaVuSans-37" x="95.410156"/>
     <use xlink:href="#DejaVuSans-35" x="159.033203"/>
    </g>
   </g>
   <g id="text_48">
    <!-- 0.83 -->
    <g transform="translate(389.399453 85.211829) rotate(-90) scale(0.1 -0.1)">
     <use xlink:href="#DejaVuSans-30"/>
     <use xlink:href="#DejaVuSans-2e" x="63.623047"/>
     <use xlink:href="#DejaVuSans-38" x="95.410156"/>
     <use xlink:href="#DejaVuSans-33" x="159.033203"/>
    </g>
   </g>
   <g id="text_49">
    <!-- 0.34 -->
    <g transform="translate(497.480098 214.122752) rotate(-90) scale(0.1 -0.1)">
     <use xlink:href="#DejaVuSans-30"/>
     <use xlink:href="#DejaVuSans-2e" x="63.623047"/>
     <use xlink:href="#DejaVuSans-33" x="95.410156"/>
     <use xlink:href="#DejaVuSans-34" x="159.033203"/>
    </g>
   </g>
   <g id="text_50">
    <!-- 0.50 -->
    <g transform="translate(605.560744 173.168681) rotate(-90) scale(0.1 -0.1)">
     <use xlink:href="#DejaVuSans-30"/>
     <use xlink:href="#DejaVuSans-2e" x="63.623047"/>
     <use xlink:href="#DejaVuSans-35" x="95.410156"/>
     <use xlink:href="#DejaVuSans-30" x="159.033203"/>
    </g>
   </g>
   <g id="text_51">
    <!-- 0.56 -->
    <g transform="translate(713.64139 158.409326) rotate(-90) scale(0.1 -0.1)">
     <use xlink:href="#DejaVuSans-30"/>
     <use xlink:href="#DejaVuSans-2e" x="63.623047"/>
     <use xlink:href="#DejaVuSans-35" x="95.410156"/>
     <use xlink:href="#DejaVuSans-36" x="159.033203"/>
    </g>
   </g>
   <g id="text_52">
    <!-- 0.59 -->
    <g transform="translate(821.722035 148.488902) rotate(-90) scale(0.1 -0.1)">
     <use xlink:href="#DejaVuSans-30"/>
     <use xlink:href="#DejaVuSans-2e" x="63.623047"/>
     <use xlink:href="#DejaVuSans-35" x="95.410156"/>
     <use xlink:href="#DejaVuSans-39" x="159.033203"/>
    </g>
   </g>
   <g id="text_53">
    <!-- 0.71 -->
    <g transform="translate(929.802681 117.894153) rotate(-90) scale(0.1 -0.1)">
     <use xlink:href="#DejaVuSans-30"/>
     <use xlink:href="#DejaVuSans-2e" x="63.623047"/>
     <use xlink:href="#DejaVuSans-37" x="95.410156"/>
     <use xlink:href="#DejaVuSans-31" x="159.033203"/>
    </g>
   </g>
   <g id="text_54">
    <!-- 0.86 -->
    <g transform="translate(1037.883326 77.580658) rotate(-90) scale(0.1 -0.1)">
     <use xlink:href="#DejaVuSans-30"/>
     <use xlink:href="#DejaVuSans-2e" x="63.623047"/>
     <use xlink:href="#DejaVuSans-38" x="95.410156"/>
     <use xlink:href="#DejaVuSans-36" x="159.033203"/>
    </g>
   </g>
   <g id="text_55">
    <!-- 0.45 -->
    <g transform="translate(1145.963972 187.26022) rotate(-90) scale(0.1 -0.1)">
     <use xlink:href="#DejaVuSans-30"/>
     <use xlink:href="#DejaVuSans-2e" x="63.623047"/>
     <use xlink:href="#DejaVuSans-34" x="95.410156"/>
     <use xlink:href="#DejaVuSans-35" x="159.033203"/>
    </g>
   </g>
   <g id="text_56">
    <!-- 0.93 -->
    <g transform="translate(1254.044617 60.538212) rotate(-90) scale(0.1 -0.1)">
     <use xlink:href="#DejaVuSans-30"/>
     <use xlink:href="#DejaVuSans-2e" x="63.623047"/>
     <use xlink:href="#DejaVuSans-39" x="95.410156"/>
     <use xlink:href="#DejaVuSans-33" x="159.033203"/>
    </g>
   </g>
   <g id="text_57">
    <!-- 0.77 -->
    <g transform="translate(1362.125263 100.616069) rotate(-90) scale(0.1 -0.1)">
     <use xlink:href="#DejaVuSans-30"/>
     <use xlink:href="#DejaVuSans-2e" x="63.623047"/>
     <use xlink:href="#DejaVuSans-37" x="95.410156"/>
     <use xlink:href="#DejaVuSans-37" x="159.033203"/>
    </g>
   </g>
   <g id="text_58">
    <!-- 0.57 -->
    <g transform="translate(1470.205908 153.212792) rotate(-90) scale(0.1 -0.1)">
     <use xlink:href="#DejaVuSans-30"/>
     <use xlink:href="#DejaVuSans-2e" x="63.623047"/>
     <use xlink:href="#DejaVuSans-35" x="95.410156"/>
     <use xlink:href="#DejaVuSans-37" x="159.033203"/>
    </g>
   </g>
   <g id="text_59">
    <!-- 0.82 -->
    <g transform="translate(1578.286554 87.747264) rotate(-90) scale(0.1 -0.1)">
     <use xlink:href="#DejaVuSans-30"/>
     <use xlink:href="#DejaVuSans-2e" x="63.623047"/>
     <use xlink:href="#DejaVuSans-38" x="95.410156"/>
     <use xlink:href="#DejaVuSans-32" x="159.033203"/>
    </g>
   </g>
   <g id="text_60">
    <!-- 0.59 -->
    <g transform="translate(1686.3672 150.341848) rotate(-90) scale(0.1 -0.1)">
     <use xlink:href="#DejaVuSans-30"/>
     <use xlink:href="#DejaVuSans-2e" x="63.623047"/>
     <use xlink:href="#DejaVuSans-35" x="95.410156"/>
     <use xlink:href="#DejaVuSans-39" x="159.033203"/>
    </g>
   </g>
   <g id="text_61">
    <!-- 0.52 -->
    <g transform="translate(1794.447845 168.18155) rotate(-90) scale(0.1 -0.1)">
     <use xlink:href="#DejaVuSans-30"/>
     <use xlink:href="#DejaVuSans-2e" x="63.623047"/>
     <use xlink:href="#DejaVuSans-35" x="95.410156"/>
     <use xlink:href="#DejaVuSans-32" x="159.033203"/>
    </g>
   </g>
   <g id="text_62">
    <!-- 0.54 -->
    <g transform="translate(1902.528491 161.260668) rotate(-90) scale(0.1 -0.1)">
     <use xlink:href="#DejaVuSans-30"/>
     <use xlink:href="#DejaVuSans-2e" x="63.623047"/>
     <use xlink:href="#DejaVuSans-35" x="95.410156"/>
     <use xlink:href="#DejaVuSans-34" x="159.033203"/>
    </g>
   </g>
   <g id="text_63">
    <!-- 0.46 -->
    <g transform="translate(2010.609136 183.91726) rotate(-90) scale(0.1 -0.1)">
     <use xlink:href="#DejaVuSans-30"/>
     <use xlink:href="#DejaVuSans-2e" x="63.623047"/>
     <use xlink:href="#DejaVuSans-34" x="95.410156"/>
     <use xlink:href="#DejaVuSans-36" x="159.033203"/>
    </g>
   </g>
   <g id="text_64">
    <!-- 0.72 -->
    <g transform="translate(2118.689782 115.777462) rotate(-90) scale(0.1 -0.1)">
     <use xlink:href="#DejaVuSans-30"/>
     <use xlink:href="#DejaVuSans-2e" x="63.623047"/>
     <use xlink:href="#DejaVuSans-37" x="95.410156"/>
     <use xlink:href="#DejaVuSans-32" x="159.033203"/>
    </g>
   </g>
   <g id="text_65">
    <!-- 0.55 -->
    <g transform="translate(191.071468 159.310159) rotate(-90) scale(0.1 -0.1)">
     <use xlink:href="#DejaVuSans-30"/>
     <use xlink:href="#DejaVuSans-2e" x="63.623047"/>
     <use xlink:href="#DejaVuSans-35" x="95.410156"/>
     <use xlink:href="#DejaVuSans-35" x="159.033203"/>
    </g>
   </g>
   <g id="text_66">
    <!-- 0.41 -->
    <g transform="translate(299.152114 195.824043) rotate(-90) scale(0.1 -0.1)">
     <use xlink:href="#DejaVuSans-30"/>
     <use xlink:href="#DejaVuSans-2e" x="63.623047"/>
     <use xlink:href="#DejaVuSans-34" x="95.410156"/>
     <use xlink:href="#DejaVuSans-31" x="159.033203"/>
    </g>
   </g>
   <g id="text_67">
    <!-- 0.76 -->
    <g transform="translate(407.232759 104.365348) rotate(-90) scale(0.1 -0.1)">
     <use xlink:href="#DejaVuSans-30"/>
     <use xlink:href="#DejaVuSans-2e" x="63.623047"/>
     <use xlink:href="#DejaVuSans-37" x="95.410156"/>
     <use xlink:href="#DejaVuSans-36" x="159.033203"/>
    </g>
   </g>
   <g id="text_68">
    <!-- 0.18 -->
    <g transform="translate(515.313405 257.864074) rotate(-90) scale(0.1 -0.1)">
     <use xlink:href="#DejaVuSans-30"/>
     <use xlink:href="#DejaVuSans-2e" x="63.623047"/>
     <use xlink:href="#DejaVuSans-31" x="95.410156"/>
     <use xlink:href="#DejaVuSans-38" x="159.033203"/>
    </g>
   </g>
   <g id="text_69">
    <!-- 0.40 -->
    <g transform="translate(623.39405 199.562494) rotate(-90) scale(0.1 -0.1)">
     <use xlink:href="#DejaVuSans-30"/>
     <use xlink:href="#DejaVuSans-2e" x="63.623047"/>
     <use xlink:href="#DejaVuSans-34" x="95.410156"/>
     <use xlink:href="#DejaVuSans-30" x="159.033203"/>
    </g>
   </g>
   <g id="text_70">
    <!-- 0.27 -->
    <g transform="translate(731.474696 233.050257) rotate(-90) scale(0.1 -0.1)">
     <use xlink:href="#DejaVuSans-30"/>
     <use xlink:href="#DejaVuSans-2e" x="63.623047"/>
     <use xlink:href="#DejaVuSans-32" x="95.410156"/>
     <use xlink:href="#DejaVuSans-37" x="159.033203"/>
    </g>
   </g>
   <g id="text_71">
    <!-- 0.00 -->
    <g transform="translate(839.555342 305.158125) rotate(-90) scale(0.1 -0.1)">
     <use xlink:href="#DejaVuSans-30"/>
     <use xlink:href="#DejaVuSans-2e" x="63.623047"/>
     <use xlink:href="#DejaVuSans-30" x="95.410156"/>
     <use xlink:href="#DejaVuSans-30" x="159.033203"/>
    </g>
   </g>
   <g id="text_72">
    <!-- 0.12 -->
    <g transform="translate(947.635987 274.013777) rotate(-90) scale(0.1 -0.1)">
     <use xlink:href="#DejaVuSans-30"/>
     <use xlink:href="#DejaVuSans-2e" x="63.623047"/>
     <use xlink:href="#DejaVuSans-31" x="95.410156"/>
     <use xlink:href="#DejaVuSans-32" x="159.033203"/>
    </g>
   </g>
   <g id="text_73">
    <!-- 0.75 -->
    <g transform="translate(1055.716633 105.80253) rotate(-90) scale(0.1 -0.1)">
     <use xlink:href="#DejaVuSans-30"/>
     <use xlink:href="#DejaVuSans-2e" x="63.623047"/>
     <use xlink:href="#DejaVuSans-37" x="95.410156"/>
     <use xlink:href="#DejaVuSans-35" x="159.033203"/>
    </g>
   </g>
   <g id="text_74">
    <!-- 0.46 -->
    <g transform="translate(1163.797278 182.249035) rotate(-90) scale(0.1 -0.1)">
     <use xlink:href="#DejaVuSans-30"/>
     <use xlink:href="#DejaVuSans-2e" x="63.623047"/>
     <use xlink:href="#DejaVuSans-34" x="95.410156"/>
     <use xlink:href="#DejaVuSans-36" x="159.033203"/>
    </g>
   </g>
   <g id="text_75">
    <!-- 0.86 -->
    <g transform="translate(1271.877924 77.808485) rotate(-90) scale(0.1 -0.1)">
     <use xlink:href="#DejaVuSans-30"/>
     <use xlink:href="#DejaVuSans-2e" x="63.623047"/>
     <use xlink:href="#DejaVuSans-38" x="95.410156"/>
     <use xlink:href="#DejaVuSans-36" x="159.033203"/>
    </g>
   </g>
   <g id="text_76">
    <!-- 0.32 -->
    <g transform="translate(1379.958569 220.567093) rotate(-90) scale(0.1 -0.1)">
     <use xlink:href="#DejaVuSans-30"/>
     <use xlink:href="#DejaVuSans-2e" x="63.623047"/>
     <use xlink:href="#DejaVuSans-33" x="95.410156"/>
     <use xlink:href="#DejaVuSans-32" x="159.033203"/>
    </g>
   </g>
   <g id="text_77">
    <!-- 0.44 -->
    <g transform="translate(1488.039215 189.706165) rotate(-90) scale(0.1 -0.1)">
     <use xlink:href="#DejaVuSans-30"/>
     <use xlink:href="#DejaVuSans-2e" x="63.623047"/>
     <use xlink:href="#DejaVuSans-34" x="95.410156"/>
     <use xlink:href="#DejaVuSans-34" x="159.033203"/>
    </g>
   </g>
   <g id="text_78">
    <!-- 0.82 -->
    <g transform="translate(1596.11986 87.720824) rotate(-90) scale(0.1 -0.1)">
     <use xlink:href="#DejaVuSans-30"/>
     <use xlink:href="#DejaVuSans-2e" x="63.623047"/>
     <use xlink:href="#DejaVuSans-38" x="95.410156"/>
     <use xlink:href="#DejaVuSans-32" x="159.033203"/>
    </g>
   </g>
   <g id="text_79">
    <!-- 0.37 -->
    <g transform="translate(1704.200506 206.444514) rotate(-90) scale(0.1 -0.1)">
     <use xlink:href="#DejaVuSans-30"/>
     <use xlink:href="#DejaVuSans-2e" x="63.623047"/>
     <use xlink:href="#DejaVuSans-33" x="95.410156"/>
     <use xlink:href="#DejaVuSans-37" x="159.033203"/>
    </g>
   </g>
   <g id="text_80">
    <!-- 0.00 -->
    <g transform="translate(1812.281152 305.158125) rotate(-90) scale(0.1 -0.1)">
     <use xlink:href="#DejaVuSans-30"/>
     <use xlink:href="#DejaVuSans-2e" x="63.623047"/>
     <use xlink:href="#DejaVuSans-30" x="95.410156"/>
     <use xlink:href="#DejaVuSans-30" x="159.033203"/>
    </g>
   </g>
   <g id="text_81">
    <!-- 0.00 -->
    <g transform="translate(1920.361797 305.158125) rotate(-90) scale(0.1 -0.1)">
     <use xlink:href="#DejaVuSans-30"/>
     <use xlink:href="#DejaVuSans-2e" x="63.623047"/>
     <use xlink:href="#DejaVuSans-30" x="95.410156"/>
     <use xlink:href="#DejaVuSans-30" x="159.033203"/>
    </g>
   </g>
   <g id="text_82">
    <!-- 0.16 -->
    <g transform="translate(2028.442443 262.952668) rotate(-90) scale(0.1 -0.1)">
     <use xlink:href="#DejaVuSans-30"/>
     <use xlink:href="#DejaVuSans-2e" x="63.623047"/>
     <use xlink:href="#DejaVuSans-31" x="95.410156"/>
     <use xlink:href="#DejaVuSans-36" x="159.033203"/>
    </g>
   </g>
   <g id="text_83">
    <!-- 0.25 -->
    <g transform="translate(2136.523088 239.300492) rotate(-90) scale(0.1 -0.1)">
     <use xlink:href="#DejaVuSans-30"/>
     <use xlink:href="#DejaVuSans-2e" x="63.623047"/>
     <use xlink:href="#DejaVuSans-32" x="95.410156"/>
     <use xlink:href="#DejaVuSans-35" x="159.033203"/>
    </g>
   </g>
   <g id="text_84">
    <!-- 0.86 -->
    <g transform="translate(208.904775 77.646803) rotate(-90) scale(0.1 -0.1)">
     <use xlink:href="#DejaVuSans-30"/>
     <use xlink:href="#DejaVuSans-2e" x="63.623047"/>
     <use xlink:href="#DejaVuSans-38" x="95.410156"/>
     <use xlink:href="#DejaVuSans-36" x="159.033203"/>
    </g>
   </g>
   <g id="text_85">
    <!-- 0.58 -->
    <g transform="translate(316.98542 152.515079) rotate(-90) scale(0.1 -0.1)">
     <use xlink:href="#DejaVuSans-30"/>
     <use xlink:href="#DejaVuSans-2e" x="63.623047"/>
     <use xlink:href="#DejaVuSans-35" x="95.410156"/>
     <use xlink:href="#DejaVuSans-38" x="159.033203"/>
    </g>
   </g>
   <g id="text_86">
    <!-- 0.81 -->
    <g transform="translate(425.066066 91.258247) rotate(-90) scale(0.1 -0.1)">
     <use xlink:href="#DejaVuSans-30"/>
     <use xlink:href="#DejaVuSans-2e" x="63.623047"/>
     <use xlink:href="#DejaVuSans-38" x="95.410156"/>
     <use xlink:href="#DejaVuSans-31" x="159.033203"/>
    </g>
   </g>
   <g id="text_87">
    <!-- 0.26 -->
    <g transform="translate(533.146711 236.066589) rotate(-90) scale(0.1 -0.1)">
     <use xlink:href="#DejaVuSans-30"/>
     <use xlink:href="#DejaVuSans-2e" x="63.623047"/>
     <use xlink:href="#DejaVuSans-32" x="95.410156"/>
     <use xlink:href="#DejaVuSans-36" x="159.033203"/>
    </g>
   </g>
   <g id="text_88">
    <!-- 0.45 -->
    <g transform="translate(641.227357 186.501186) rotate(-90) scale(0.1 -0.1)">
     <use xlink:href="#DejaVuSans-30"/>
     <use xlink:href="#DejaVuSans-2e" x="63.623047"/>
     <use xlink:href="#DejaVuSans-34" x="95.410156"/>
     <use xlink:href="#DejaVuSans-35" x="159.033203"/>
    </g>
   </g>
   <g id="text_89">
    <!-- 0.31 -->
    <g transform="translate(749.308003 222.956204) rotate(-90) scale(0.1 -0.1)">
     <use xlink:href="#DejaVuSans-30"/>
     <use xlink:href="#DejaVuSans-2e" x="63.623047"/>
     <use xlink:href="#DejaVuSans-33" x="95.410156"/>
     <use xlink:href="#DejaVuSans-31" x="159.033203"/>
    </g>
   </g>
   <g id="text_90">
    <!-- 0.00 -->
    <g transform="translate(857.388648 305.158125) rotate(-90) scale(0.1 -0.1)">
     <use xlink:href="#DejaVuSans-30"/>
     <use xlink:href="#DejaVuSans-2e" x="63.623047"/>
     <use xlink:href="#DejaVuSans-30" x="95.410156"/>
     <use xlink:href="#DejaVuSans-30" x="159.033203"/>
    </g>
   </g>
   <g id="text_91">
    <!-- 0.17 -->
    <g transform="translate(965.469294 259.995236) rotate(-90) scale(0.1 -0.1)">
     <use xlink:href="#DejaVuSans-30"/>
     <use xlink:href="#DejaVuSans-2e" x="63.623047"/>
     <use xlink:href="#DejaVuSans-31" x="95.410156"/>
     <use xlink:href="#DejaVuSans-37" x="159.033203"/>
    </g>
   </g>
   <g id="text_92">
    <!-- 0.83 -->
    <g transform="translate(1073.549939 85.846025) rotate(-90) scale(0.1 -0.1)">
     <use xlink:href="#DejaVuSans-30"/>
     <use xlink:href="#DejaVuSans-2e" x="63.623047"/>
     <use xlink:href="#DejaVuSans-38" x="95.410156"/>
     <use xlink:href="#DejaVuSans-33" x="159.033203"/>
    </g>
   </g>
   <g id="text_93">
    <!-- 0.79 -->
    <g transform="translate(1181.630585 96.417832) rotate(-90) scale(0.1 -0.1)">
     <use xlink:href="#DejaVuSans-30"/>
     <use xlink:href="#DejaVuSans-2e" x="63.623047"/>
     <use xlink:href="#DejaVuSans-37" x="95.410156"/>
     <use xlink:href="#DejaVuSans-39" x="159.033203"/>
    </g>
   </g>
   <g id="text_94">
    <!-- 0.89 -->
    <g transform="translate(1289.71123 69.729792) rotate(-90) scale(0.1 -0.1)">
     <use xlink:href="#DejaVuSans-30"/>
     <use xlink:href="#DejaVuSans-2e" x="63.623047"/>
     <use xlink:href="#DejaVuSans-38" x="95.410156"/>
     <use xlink:href="#DejaVuSans-39" x="159.033203"/>
    </g>
   </g>
   <g id="text_95">
    <!-- 0.48 -->
    <g transform="translate(1397.791876 178.007311) rotate(-90) scale(0.1 -0.1)">
     <use xlink:href="#DejaVuSans-30"/>
     <use xlink:href="#DejaVuSans-2e" x="63.623047"/>
     <use xlink:href="#DejaVuSans-34" x="95.410156"/>
     <use xlink:href="#DejaVuSans-38" x="159.033203"/>
    </g>
   </g>
   <g id="text_96">
    <!-- 0.44 -->
    <g transform="translate(1505.872521 187.889716) rotate(-90) scale(0.1 -0.1)">
     <use xlink:href="#DejaVuSans-30"/>
     <use xlink:href="#DejaVuSans-2e" x="63.623047"/>
     <use xlink:href="#DejaVuSans-34" x="95.410156"/>
     <use xlink:href="#DejaVuSans-34" x="159.033203"/>
    </g>
   </g>
   <g id="text_97">
    <!-- 0.86 -->
    <g transform="translate(1613.953167 76.664352) rotate(-90) scale(0.1 -0.1)">
     <use xlink:href="#DejaVuSans-30"/>
     <use xlink:href="#DejaVuSans-2e" x="63.623047"/>
     <use xlink:href="#DejaVuSans-38" x="95.410156"/>
     <use xlink:href="#DejaVuSans-36" x="159.033203"/>
    </g>
   </g>
   <g id="text_98">
    <!-- 0.45 -->
    <g transform="translate(1722.033813 186.382207) rotate(-90) scale(0.1 -0.1)">
     <use xlink:href="#DejaVuSans-30"/>
     <use xlink:href="#DejaVuSans-2e" x="63.623047"/>
     <use xlink:href="#DejaVuSans-34" x="95.410156"/>
     <use xlink:href="#DejaVuSans-35" x="159.033203"/>
    </g>
   </g>
   <g id="text_99">
    <!-- 0.00 -->
    <g transform="translate(1830.114458 305.158125) rotate(-90) scale(0.1 -0.1)">
     <use xlink:href="#DejaVuSans-30"/>
     <use xlink:href="#DejaVuSans-2e" x="63.623047"/>
     <use xlink:href="#DejaVuSans-30" x="95.410156"/>
     <use xlink:href="#DejaVuSans-30" x="159.033203"/>
    </g>
   </g>
   <g id="text_100">
    <!-- 0.00 -->
    <g transform="translate(1938.195104 305.158125) rotate(-90) scale(0.1 -0.1)">
     <use xlink:href="#DejaVuSans-30"/>
     <use xlink:href="#DejaVuSans-2e" x="63.623047"/>
     <use xlink:href="#DejaVuSans-30" x="95.410156"/>
     <use xlink:href="#DejaVuSans-30" x="159.033203"/>
    </g>
   </g>
   <g id="text_101">
    <!-- 0.55 -->
    <g transform="translate(2046.275749 158.492743) rotate(-90) scale(0.1 -0.1)">
     <use xlink:href="#DejaVuSans-30"/>
     <use xlink:href="#DejaVuSans-2e" x="63.623047"/>
     <use xlink:href="#DejaVuSans-35" x="95.410156"/>
     <use xlink:href="#DejaVuSans-35" x="159.033203"/>
    </g>
   </g>
   <g id="text_102">
    <!-- 0.47 -->
    <g transform="translate(2154.356395 181.698516) rotate(-90) scale(0.1 -0.1)">
     <use xlink:href="#DejaVuSans-30"/>
     <use xlink:href="#DejaVuSans-2e" x="63.623047"/>
     <use xlink:href="#DejaVuSans-34" x="95.410156"/>
     <use xlink:href="#DejaVuSans-37" x="159.033203"/>
    </g>
   </g>
   <g id="text_103">
    <!-- Comparison of IoU Values: Baseline vs Finetuned for Two Datasets -->
    <g transform="translate(953.919688 16.318125) scale(0.12 -0.12)">
     <defs>
      <path id="DejaVuSans-43" d="M 4122 4306 
L 4122 3641 
Q 3803 3938 3442 4084 
Q 3081 4231 2675 4231 
Q 1875 4231 1450 3742 
Q 1025 3253 1025 2328 
Q 1025 1406 1450 917 
Q 1875 428 2675 428 
Q 3081 428 3442 575 
Q 3803 722 4122 1019 
L 4122 359 
Q 3791 134 3420 21 
Q 3050 -91 2638 -91 
Q 1578 -91 968 557 
Q 359 1206 359 2328 
Q 359 3453 968 4101 
Q 1578 4750 2638 4750 
Q 3056 4750 3426 4639 
Q 3797 4528 4122 4306 
z
" transform="scale(0.015625)"/>
      <path id="DejaVuSans-56" d="M 1831 0 
L 50 4666 
L 709 4666 
L 2188 738 
L 3669 4666 
L 4325 4666 
L 2547 0 
L 1831 0 
z
" transform="scale(0.015625)"/>
      <path id="DejaVuSans-3a" d="M 750 794 
L 1409 794 
L 1409 0 
L 750 0 
L 750 794 
z
M 750 3309 
L 1409 3309 
L 1409 2516 
L 750 2516 
L 750 3309 
z
" transform="scale(0.015625)"/>
      <path id="DejaVuSans-42" d="M 1259 2228 
L 1259 519 
L 2272 519 
Q 2781 519 3026 730 
Q 3272 941 3272 1375 
Q 3272 1813 3026 2020 
Q 2781 2228 2272 2228 
L 1259 2228 
z
M 1259 4147 
L 1259 2741 
L 2194 2741 
Q 2656 2741 2882 2914 
Q 3109 3088 3109 3444 
Q 3109 3797 2882 3972 
Q 2656 4147 2194 4147 
L 1259 4147 
z
M 628 4666 
L 2241 4666 
Q 2963 4666 3353 4366 
Q 3744 4066 3744 3513 
Q 3744 3084 3544 2831 
Q 3344 2578 2956 2516 
Q 3422 2416 3680 2098 
Q 3938 1781 3938 1306 
Q 3938 681 3513 340 
Q 3088 0 2303 0 
L 628 0 
L 628 4666 
z
" transform="scale(0.015625)"/>
      <path id="DejaVuSans-46" d="M 628 4666 
L 3309 4666 
L 3309 4134 
L 1259 4134 
L 1259 2759 
L 3109 2759 
L 3109 2228 
L 1259 2228 
L 1259 0 
L 628 0 
L 628 4666 
z
" transform="scale(0.015625)"/>
      <path id="DejaVuSans-54" d="M -19 4666 
L 3928 4666 
L 3928 4134 
L 2272 4134 
L 2272 0 
L 1638 0 
L 1638 4134 
L -19 4134 
L -19 4666 
z
" transform="scale(0.015625)"/>
      <path id="DejaVuSans-44" d="M 1259 4147 
L 1259 519 
L 2022 519 
Q 2988 519 3436 956 
Q 3884 1394 3884 2338 
Q 3884 3275 3436 3711 
Q 2988 4147 2022 4147 
L 1259 4147 
z
M 628 4666 
L 1925 4666 
Q 3281 4666 3915 4102 
Q 4550 3538 4550 2338 
Q 4550 1131 3912 565 
Q 3275 0 1925 0 
L 628 0 
L 628 4666 
z
" transform="scale(0.015625)"/>
     </defs>
     <use xlink:href="#DejaVuSans-43"/>
     <use xlink:href="#DejaVuSans-6f" x="69.824219"/>
     <use xlink:href="#DejaVuSans-6d" x="131.005859"/>
     <use xlink:href="#DejaVuSans-70" x="228.417969"/>
     <use xlink:href="#DejaVuSans-61" x="291.894531"/>
     <use xlink:href="#DejaVuSans-72" x="353.173828"/>
     <use xlink:href="#DejaVuSans-69" x="394.287109"/>
     <use xlink:href="#DejaVuSans-73" x="422.070312"/>
     <use xlink:href="#DejaVuSans-6f" x="474.169922"/>
     <use xlink:href="#DejaVuSans-6e" x="535.351562"/>
     <use xlink:href="#DejaVuSans-20" x="598.730469"/>
     <use xlink:href="#DejaVuSans-6f" x="630.517578"/>
     <use xlink:href="#DejaVuSans-66" x="691.699219"/>
     <use xlink:href="#DejaVuSans-20" x="726.904297"/>
     <use xlink:href="#DejaVuSans-49" x="758.691406"/>
     <use xlink:href="#DejaVuSans-6f" x="788.183594"/>
     <use xlink:href="#DejaVuSans-55" x="849.365234"/>
     <use xlink:href="#DejaVuSans-20" x="922.558594"/>
     <use xlink:href="#DejaVuSans-56" x="954.345703"/>
     <use xlink:href="#DejaVuSans-61" x="1015.003906"/>
     <use xlink:href="#DejaVuSans-6c" x="1076.283203"/>
     <use xlink:href="#DejaVuSans-75" x="1104.066406"/>
     <use xlink:href="#DejaVuSans-65" x="1167.445312"/>
     <use xlink:href="#DejaVuSans-73" x="1228.96875"/>
     <use xlink:href="#DejaVuSans-3a" x="1281.068359"/>
     <use xlink:href="#DejaVuSans-20" x="1314.759766"/>
     <use xlink:href="#DejaVuSans-42" x="1346.546875"/>
     <use xlink:href="#DejaVuSans-61" x="1415.150391"/>
     <use xlink:href="#DejaVuSans-73" x="1476.429688"/>
     <use xlink:href="#DejaVuSans-65" x="1528.529297"/>
     <use xlink:href="#DejaVuSans-6c" x="1590.052734"/>
     <use xlink:href="#DejaVuSans-69" x="1617.835938"/>
     <use xlink:href="#DejaVuSans-6e" x="1645.619141"/>
     <use xlink:href="#DejaVuSans-65" x="1708.998047"/>
     <use xlink:href="#DejaVuSans-20" x="1770.521484"/>
     <use xlink:href="#DejaVuSans-76" x="1802.308594"/>
     <use xlink:href="#DejaVuSans-73" x="1861.488281"/>
     <use xlink:href="#DejaVuSans-20" x="1913.587891"/>
     <use xlink:href="#DejaVuSans-46" x="1945.375"/>
     <use xlink:href="#DejaVuSans-69" x="1995.644531"/>
     <use xlink:href="#DejaVuSans-6e" x="2023.427734"/>
     <use xlink:href="#DejaVuSans-65" x="2086.806641"/>
     <use xlink:href="#DejaVuSans-74" x="2148.330078"/>
     <use xlink:href="#DejaVuSans-75" x="2187.539062"/>
     <use xlink:href="#DejaVuSans-6e" x="2250.917969"/>
     <use xlink:href="#DejaVuSans-65" x="2314.296875"/>
     <use xlink:href="#DejaVuSans-64" x="2375.820312"/>
     <use xlink:href="#DejaVuSans-20" x="2439.296875"/>
     <use xlink:href="#DejaVuSans-66" x="2471.083984"/>
     <use xlink:href="#DejaVuSans-6f" x="2506.289062"/>
     <use xlink:href="#DejaVuSans-72" x="2567.470703"/>
     <use xlink:href="#DejaVuSans-20" x="2608.583984"/>
     <use xlink:href="#DejaVuSans-54" x="2640.371094"/>
     <use xlink:href="#DejaVuSans-77" x="2684.955078"/>
     <use xlink:href="#DejaVuSans-6f" x="2766.742188"/>
     <use xlink:href="#DejaVuSans-20" x="2827.923828"/>
     <use xlink:href="#DejaVuSans-44" x="2859.710938"/>
     <use xlink:href="#DejaVuSans-61" x="2936.712891"/>
     <use xlink:href="#DejaVuSans-74" x="2997.992188"/>
     <use xlink:href="#DejaVuSans-61" x="3037.201172"/>
     <use xlink:href="#DejaVuSans-73" x="3098.480469"/>
     <use xlink:href="#DejaVuSans-65" x="3150.580078"/>
     <use xlink:href="#DejaVuSans-74" x="3212.103516"/>
     <use xlink:href="#DejaVuSans-73" x="3251.3125"/>
    </g>
   </g>
   <g id="legend_1">
    <g id="patch_83">
     <path d="M 2114.744063 89.030625 
L 2253.46125 89.030625 
Q 2255.46125 89.030625 2255.46125 87.030625 
L 2255.46125 29.318125 
Q 2255.46125 27.318125 2253.46125 27.318125 
L 2114.744063 27.318125 
Q 2112.744063 27.318125 2112.744063 29.318125 
L 2112.744063 87.030625 
Q 2112.744063 89.030625 2114.744063 89.030625 
z
" style="fill: #ffffff; opacity: 0.8; stroke: #cccccc; stroke-linejoin: miter"/>
    </g>
    <g id="patch_84">
     <path d="M 2116.744063 38.916562 
L 2136.744063 38.916562 
L 2136.744063 31.916562 
L 2116.744063 31.916562 
z
" style="fill: #ffa500; opacity: 0.9"/>
    </g>
    <g id="text_104">
     <!-- Baseline Cityscapes -->
     <g transform="translate(2144.744063 38.916562) scale(0.1 -0.1)">
      <use xlink:href="#DejaVuSans-42"/>
      <use xlink:href="#DejaVuSans-61" x="68.603516"/>
      <use xlink:href="#DejaVuSans-73" x="129.882812"/>
      <use xlink:href="#DejaVuSans-65" x="181.982422"/>
      <use xlink:href="#DejaVuSans-6c" x="243.505859"/>
      <use xlink:href="#DejaVuSans-69" x="271.289062"/>
      <use xlink:href="#DejaVuSans-6e" x="299.072266"/>
      <use xlink:href="#DejaVuSans-65" x="362.451172"/>
      <use xlink:href="#DejaVuSans-20" x="423.974609"/>
      <use xlink:href="#DejaVuSans-43" x="455.761719"/>
      <use xlink:href="#DejaVuSans-69" x="525.585938"/>
      <use xlink:href="#DejaVuSans-74" x="553.369141"/>
      <use xlink:href="#DejaVuSans-79" x="592.578125"/>
      <use xlink:href="#DejaVuSans-73" x="651.757812"/>
      <use xlink:href="#DejaVuSans-63" x="703.857422"/>
      <use xlink:href="#DejaVuSans-61" x="758.837891"/>
      <use xlink:href="#DejaVuSans-70" x="820.117188"/>
      <use xlink:href="#DejaVuSans-65" x="883.59375"/>
      <use xlink:href="#DejaVuSans-73" x="945.117188"/>
     </g>
    </g>
    <g id="patch_85">
     <path d="M 2116.744063 53.594687 
L 2136.744063 53.594687 
L 2136.744063 46.594687 
L 2116.744063 46.594687 
z
" style="fill: #0000ff; opacity: 0.9"/>
    </g>
    <g id="text_105">
     <!-- Finetuned Cityscapes -->
     <g transform="translate(2144.744063 53.594687) scale(0.1 -0.1)">
      <use xlink:href="#DejaVuSans-46"/>
      <use xlink:href="#DejaVuSans-69" x="50.269531"/>
      <use xlink:href="#DejaVuSans-6e" x="78.052734"/>
      <use xlink:href="#DejaVuSans-65" x="141.431641"/>
      <use xlink:href="#DejaVuSans-74" x="202.955078"/>
      <use xlink:href="#DejaVuSans-75" x="242.164062"/>
      <use xlink:href="#DejaVuSans-6e" x="305.542969"/>
      <use xlink:href="#DejaVuSans-65" x="368.921875"/>
      <use xlink:href="#DejaVuSans-64" x="430.445312"/>
      <use xlink:href="#DejaVuSans-20" x="493.921875"/>
      <use xlink:href="#DejaVuSans-43" x="525.708984"/>
      <use xlink:href="#DejaVuSans-69" x="595.533203"/>
      <use xlink:href="#DejaVuSans-74" x="623.316406"/>
      <use xlink:href="#DejaVuSans-79" x="662.525391"/>
      <use xlink:href="#DejaVuSans-73" x="721.705078"/>
      <use xlink:href="#DejaVuSans-63" x="773.804688"/>
      <use xlink:href="#DejaVuSans-61" x="828.785156"/>
      <use xlink:href="#DejaVuSans-70" x="890.064453"/>
      <use xlink:href="#DejaVuSans-65" x="953.541016"/>
      <use xlink:href="#DejaVuSans-73" x="1015.064453"/>
     </g>
    </g>
    <g id="patch_86">
     <path d="M 2116.744063 68.272812 
L 2136.744063 68.272812 
L 2136.744063 61.272812 
L 2116.744063 61.272812 
z
" style="fill: #008000; opacity: 0.9"/>
    </g>
    <g id="text_106">
     <!-- Baseline KITTI-360 -->
     <g transform="translate(2144.744063 68.272812) scale(0.1 -0.1)">
      <defs>
       <path id="DejaVuSans-4b" d="M 628 4666 
L 1259 4666 
L 1259 2694 
L 3353 4666 
L 4166 4666 
L 1850 2491 
L 4331 0 
L 3500 0 
L 1259 2247 
L 1259 0 
L 628 0 
L 628 4666 
z
" transform="scale(0.015625)"/>
       <path id="DejaVuSans-2d" d="M 313 2009 
L 1997 2009 
L 1997 1497 
L 313 1497 
L 313 2009 
z
" transform="scale(0.015625)"/>
      </defs>
      <use xlink:href="#DejaVuSans-42"/>
      <use xlink:href="#DejaVuSans-61" x="68.603516"/>
      <use xlink:href="#DejaVuSans-73" x="129.882812"/>
      <use xlink:href="#DejaVuSans-65" x="181.982422"/>
      <use xlink:href="#DejaVuSans-6c" x="243.505859"/>
      <use xlink:href="#DejaVuSans-69" x="271.289062"/>
      <use xlink:href="#DejaVuSans-6e" x="299.072266"/>
      <use xlink:href="#DejaVuSans-65" x="362.451172"/>
      <use xlink:href="#DejaVuSans-20" x="423.974609"/>
      <use xlink:href="#DejaVuSans-4b" x="455.761719"/>
      <use xlink:href="#DejaVuSans-49" x="521.337891"/>
      <use xlink:href="#DejaVuSans-54" x="550.830078"/>
      <use xlink:href="#DejaVuSans-54" x="610.164062"/>
      <use xlink:href="#DejaVuSans-49" x="671.248047"/>
      <use xlink:href="#DejaVuSans-2d" x="700.740234"/>
      <use xlink:href="#DejaVuSans-33" x="736.824219"/>
      <use xlink:href="#DejaVuSans-36" x="800.447266"/>
      <use xlink:href="#DejaVuSans-30" x="864.070312"/>
     </g>
    </g>
    <g id="patch_87">
     <path d="M 2116.744063 82.950937 
L 2136.744063 82.950937 
L 2136.744063 75.950937 
L 2116.744063 75.950937 
z
" style="fill: #ff0000; opacity: 0.9"/>
    </g>
    <g id="text_107">
     <!-- Finetuned KITTI-360 -->
     <g transform="translate(2144.744063 82.950937) scale(0.1 -0.1)">
      <use xlink:href="#DejaVuSans-46"/>
      <use xlink:href="#DejaVuSans-69" x="50.269531"/>
      <use xlink:href="#DejaVuSans-6e" x="78.052734"/>
      <use xlink:href="#DejaVuSans-65" x="141.431641"/>
      <use xlink:href="#DejaVuSans-74" x="202.955078"/>
      <use xlink:href="#DejaVuSans-75" x="242.164062"/>
      <use xlink:href="#DejaVuSans-6e" x="305.542969"/>
      <use xlink:href="#DejaVuSans-65" x="368.921875"/>
      <use xlink:href="#DejaVuSans-64" x="430.445312"/>
      <use xlink:href="#DejaVuSans-20" x="493.921875"/>
      <use xlink:href="#DejaVuSans-4b" x="525.708984"/>
      <use xlink:href="#DejaVuSans-49" x="591.285156"/>
      <use xlink:href="#DejaVuSans-54" x="620.777344"/>
      <use xlink:href="#DejaVuSans-54" x="680.111328"/>
      <use xlink:href="#DejaVuSans-49" x="741.195312"/>
      <use xlink:href="#DejaVuSans-2d" x="770.6875"/>
      <use xlink:href="#DejaVuSans-33" x="806.771484"/>
      <use xlink:href="#DejaVuSans-36" x="870.394531"/>
      <use xlink:href="#DejaVuSans-30" x="934.017578"/>
     </g>
    </g>
   </g>
  </g>
 </g>
 <defs>
  <clipPath id="p04d63f01d4">
   <rect x="43.78125" y="22.318125" width="2216.68" height="290.84"/>
  </clipPath>
 </defs>
</svg>
