<?xml version="1.0" encoding="utf-8" standalone="no"?>
<!DOCTYPE svg PUBLIC "-//W3C//DTD SVG 1.1//EN"
  "http://www.w3.org/Graphics/SVG/1.1/DTD/svg11.dtd">
<svg xmlns:xlink="http://www.w3.org/1999/xlink" width="460.704375pt" height="353.26625pt" viewBox="0 0 460.704375 353.26625" xmlns="http://www.w3.org/2000/svg" version="1.1">
 <metadata>
  <rdf:RDF xmlns:dc="http://purl.org/dc/elements/1.1/" xmlns:cc="http://creativecommons.org/ns#" xmlns:rdf="http://www.w3.org/1999/02/22-rdf-syntax-ns#">
   <cc:Work>
    <dc:type rdf:resource="http://purl.org/dc/dcmitype/StillImage"/>
    <dc:date>2024-07-28T23:31:29.465638</dc:date>
    <dc:format>image/svg+xml</dc:format>
    <dc:creator>
     <cc:Agent>
      <dc:title>Matplotlib v3.7.5, https://matplotlib.org/</dc:title>
     </cc:Agent>
    </dc:creator>
   </cc:Work>
  </rdf:RDF>
 </metadata>
 <defs>
  <style type="text/css">*{stroke-linejoin: round; stroke-linecap: butt}</style>
 </defs>
 <g id="figure_1">
  <g id="patch_1">
   <path d="M 0 353.26625 
L 460.704375 353.26625 
L 460.704375 0 
L 0 0 
z
" style="fill: #ffffff"/>
  </g>
  <g id="axes_1">
   <g id="patch_2">
    <path d="M 44.474375 291.8575 
L 453.504375 291.8575 
L 453.504375 25.3575 
L 44.474375 25.3575 
z
" style="fill: #ffffff"/>
   </g>
   <g id="patch_3">
    <path d="M 63.066648 291.8575 
L 72.136049 291.8575 
L 72.136049 38.047976 
L 63.066648 38.047976 
z
" clip-path="url(#p528afec0de)" style="fill: #ff0000; stroke: #ff0000; stroke-linejoin: miter"/>
   </g>
   <g id="patch_4">
    <path d="M 74.403399 291.8575 
L 83.472801 291.8575 
L 83.472801 58.838736 
L 74.403399 58.838736 
z
" clip-path="url(#p528afec0de)" style="fill: #ff0000; stroke: #ff0000; stroke-linejoin: miter"/>
   </g>
   <g id="patch_5">
    <path d="M 85.740151 291.8575 
L 94.809552 291.8575 
L 94.809552 66.95654 
L 85.740151 66.95654 
z
" clip-path="url(#p528afec0de)" style="fill: #ff0000; stroke: #ff0000; stroke-linejoin: miter"/>
   </g>
   <g id="patch_6">
    <path d="M 97.076903 291.8575 
L 106.146304 291.8575 
L 106.146304 53.078978 
L 97.076903 53.078978 
z
" clip-path="url(#p528afec0de)" style="fill: #ff0000; stroke: #ff0000; stroke-linejoin: miter"/>
   </g>
   <g id="patch_7">
    <path d="M 108.413654 291.8575 
L 117.483056 291.8575 
L 117.483056 105.108291 
L 108.413654 105.108291 
z
" clip-path="url(#p528afec0de)" style="fill: #0000ff; stroke: #0000ff; stroke-linejoin: miter"/>
   </g>
   <g id="patch_8">
    <path d="M 119.750406 291.8575 
L 128.819807 291.8575 
L 128.819807 122.768528 
L 119.750406 122.768528 
z
" clip-path="url(#p528afec0de)" style="fill: #0000ff; stroke: #0000ff; stroke-linejoin: miter"/>
   </g>
   <g id="patch_9">
    <path d="M 131.087158 291.8575 
L 140.156559 291.8575 
L 140.156559 128.595639 
L 131.087158 128.595639 
z
" clip-path="url(#p528afec0de)" style="fill: #0000ff; stroke: #0000ff; stroke-linejoin: miter"/>
   </g>
   <g id="patch_10">
    <path d="M 142.423909 291.8575 
L 151.493311 291.8575 
L 151.493311 103.574148 
L 142.423909 103.574148 
z
" clip-path="url(#p528afec0de)" style="fill: #0000ff; stroke: #0000ff; stroke-linejoin: miter"/>
   </g>
   <g id="patch_11">
    <path d="M 153.760661 291.8575 
L 162.830062 291.8575 
L 162.830062 87.945623 
L 153.760661 87.945623 
z
" clip-path="url(#p528afec0de)" style="fill: #ff0000; stroke: #ff0000; stroke-linejoin: miter"/>
   </g>
   <g id="patch_12">
    <path d="M 165.097413 291.8575 
L 174.166814 291.8575 
L 174.166814 96.983449 
L 165.097413 96.983449 
z
" clip-path="url(#p528afec0de)" style="fill: #ff0000; stroke: #ff0000; stroke-linejoin: miter"/>
   </g>
   <g id="patch_13">
    <path d="M 176.434164 291.8575 
L 185.503566 291.8575 
L 185.503566 108.249335 
L 176.434164 108.249335 
z
" clip-path="url(#p528afec0de)" style="fill: #0000ff; stroke: #0000ff; stroke-linejoin: miter"/>
   </g>
   <g id="patch_14">
    <path d="M 187.770916 291.8575 
L 196.840317 291.8575 
L 196.840317 125.015759 
L 187.770916 125.015759 
z
" clip-path="url(#p528afec0de)" style="fill: #0000ff; stroke: #0000ff; stroke-linejoin: miter"/>
   </g>
   <g id="patch_15">
    <path d="M 199.107668 291.8575 
L 208.177069 291.8575 
L 208.177069 138.81198 
L 199.107668 138.81198 
z
" clip-path="url(#p528afec0de)" style="fill: #0000ff; stroke: #0000ff; stroke-linejoin: miter"/>
   </g>
   <g id="patch_16">
    <path d="M 210.444419 291.8575 
L 219.513821 291.8575 
L 219.513821 149.065514 
L 210.444419 149.065514 
z
" clip-path="url(#p528afec0de)" style="fill: #0000ff; stroke: #0000ff; stroke-linejoin: miter"/>
   </g>
   <g id="patch_17">
    <path d="M 221.781171 291.8575 
L 230.850572 291.8575 
L 230.850572 165.971555 
L 221.781171 165.971555 
z
" clip-path="url(#p528afec0de)" style="fill: #0000ff; stroke: #0000ff; stroke-linejoin: miter"/>
   </g>
   <g id="patch_18">
    <path d="M 233.117923 291.8575 
L 242.187324 291.8575 
L 242.187324 174.413731 
L 233.117923 174.413731 
z
" clip-path="url(#p528afec0de)" style="fill: #0000ff; stroke: #0000ff; stroke-linejoin: miter"/>
   </g>
   <g id="patch_19">
    <path d="M 244.454674 291.8575 
L 253.524076 291.8575 
L 253.524076 180.274872 
L 244.454674 180.274872 
z
" clip-path="url(#p528afec0de)" style="fill: #0000ff; stroke: #0000ff; stroke-linejoin: miter"/>
   </g>
   <g id="patch_20">
    <path d="M 255.791426 291.8575 
L 264.860827 291.8575 
L 264.860827 188.209169 
L 255.791426 188.209169 
z
" clip-path="url(#p528afec0de)" style="fill: #0000ff; stroke: #0000ff; stroke-linejoin: miter"/>
   </g>
   <g id="patch_21">
    <path d="M 267.128178 291.8575 
L 276.197579 291.8575 
L 276.197579 192.58158 
L 267.128178 192.58158 
z
" clip-path="url(#p528afec0de)" style="fill: #0000ff; stroke: #0000ff; stroke-linejoin: miter"/>
   </g>
   <g id="patch_22">
    <path d="M 278.464929 291.8575 
L 287.534331 291.8575 
L 287.534331 196.247181 
L 278.464929 196.247181 
z
" clip-path="url(#p528afec0de)" style="fill: #0000ff; stroke: #0000ff; stroke-linejoin: miter"/>
   </g>
   <g id="patch_23">
    <path d="M 289.801681 291.8575 
L 298.871082 291.8575 
L 298.871082 200.820149 
L 289.801681 200.820149 
z
" clip-path="url(#p528afec0de)" style="fill: #0000ff; stroke: #0000ff; stroke-linejoin: miter"/>
   </g>
   <g id="patch_24">
    <path d="M 301.138433 291.8575 
L 310.207834 291.8575 
L 310.207834 202.457206 
L 301.138433 202.457206 
z
" clip-path="url(#p528afec0de)" style="fill: #0000ff; stroke: #0000ff; stroke-linejoin: miter"/>
   </g>
   <g id="patch_25">
    <path d="M 312.475184 291.8575 
L 321.544586 291.8575 
L 321.544586 204.272545 
L 312.475184 204.272545 
z
" clip-path="url(#p528afec0de)" style="fill: #0000ff; stroke: #0000ff; stroke-linejoin: miter"/>
   </g>
   <g id="patch_26">
    <path d="M 323.811936 291.8575 
L 332.881337 291.8575 
L 332.881337 207.03814 
L 323.811936 207.03814 
z
" clip-path="url(#p528afec0de)" style="fill: #0000ff; stroke: #0000ff; stroke-linejoin: miter"/>
   </g>
   <g id="patch_27">
    <path d="M 335.148688 291.8575 
L 344.218089 291.8575 
L 344.218089 209.370085 
L 335.148688 209.370085 
z
" clip-path="url(#p528afec0de)" style="fill: #0000ff; stroke: #0000ff; stroke-linejoin: miter"/>
   </g>
   <g id="patch_28">
    <path d="M 346.485439 291.8575 
L 355.554841 291.8575 
L 355.554841 213.175313 
L 346.485439 213.175313 
z
" clip-path="url(#p528afec0de)" style="fill: #0000ff; stroke: #0000ff; stroke-linejoin: miter"/>
   </g>
   <g id="patch_29">
    <path d="M 357.822191 291.8575 
L 366.891592 291.8575 
L 366.891592 217.038017 
L 357.822191 217.038017 
z
" clip-path="url(#p528afec0de)" style="fill: #0000ff; stroke: #0000ff; stroke-linejoin: miter"/>
   </g>
   <g id="patch_30">
    <path d="M 369.158943 291.8575 
L 378.228344 291.8575 
L 378.228344 220.654193 
L 369.158943 220.654193 
z
" clip-path="url(#p528afec0de)" style="fill: #0000ff; stroke: #0000ff; stroke-linejoin: miter"/>
   </g>
   <g id="patch_31">
    <path d="M 380.495694 291.8575 
L 389.565096 291.8575 
L 389.565096 223.424955 
L 380.495694 223.424955 
z
" clip-path="url(#p528afec0de)" style="fill: #0000ff; stroke: #0000ff; stroke-linejoin: miter"/>
   </g>
   <g id="patch_32">
    <path d="M 391.832446 291.8575 
L 400.901847 291.8575 
L 400.901847 224.405975 
L 391.832446 224.405975 
z
" clip-path="url(#p528afec0de)" style="fill: #0000ff; stroke: #0000ff; stroke-linejoin: miter"/>
   </g>
   <g id="patch_33">
    <path d="M 403.169198 291.8575 
L 412.238599 291.8575 
L 412.238599 188.689781 
L 403.169198 188.689781 
z
" clip-path="url(#p528afec0de)" style="fill: #0000ff; stroke: #0000ff; stroke-linejoin: miter"/>
   </g>
   <g id="patch_34">
    <path d="M 414.505949 291.8575 
L 423.575351 291.8575 
L 423.575351 172.125062 
L 414.505949 172.125062 
z
" clip-path="url(#p528afec0de)" style="fill: #0000ff; stroke: #0000ff; stroke-linejoin: miter"/>
   </g>
   <g id="patch_35">
    <path d="M 425.842701 291.8575 
L 434.912102 291.8575 
L 434.912102 164.696564 
L 425.842701 164.696564 
z
" clip-path="url(#p528afec0de)" style="fill: #0000ff; stroke: #0000ff; stroke-linejoin: miter"/>
   </g>
   <g id="matplotlib.axis_1">
    <g id="xtick_1">
     <g id="line2d_1">
      <defs>
       <path id="m328d0fb1c7" d="M 0 0 
L 0 3.5 
" style="stroke: #000000; stroke-width: 0.8"/>
      </defs>
      <g>
       <use xlink:href="#m328d0fb1c7" x="67.601348" y="291.8575" style="stroke: #000000; stroke-width: 0.8"/>
      </g>
     </g>
     <g id="text_1">
      <!-- L1_0 -->
      <g transform="translate(70.13338 322.154375) rotate(-90) scale(0.1 -0.1)">
       <defs>
        <path id="DejaVuSans-4c" d="M 628 4666 
L 1259 4666 
L 1259 531 
L 3531 531 
L 3531 0 
L 628 0 
L 628 4666 
z
" transform="scale(0.015625)"/>
        <path id="DejaVuSans-31" d="M 794 531 
L 1825 531 
L 1825 4091 
L 703 3866 
L 703 4441 
L 1819 4666 
L 2450 4666 
L 2450 531 
L 3481 531 
L 3481 0 
L 794 0 
L 794 531 
z
" transform="scale(0.015625)"/>
        <path id="DejaVuSans-5f" d="M 3263 -1063 
L 3263 -1509 
L -63 -1509 
L -63 -1063 
L 3263 -1063 
z
" transform="scale(0.015625)"/>
        <path id="DejaVuSans-30" d="M 2034 4250 
Q 1547 4250 1301 3770 
Q 1056 3291 1056 2328 
Q 1056 1369 1301 889 
Q 1547 409 2034 409 
Q 2525 409 2770 889 
Q 3016 1369 3016 2328 
Q 3016 3291 2770 3770 
Q 2525 4250 2034 4250 
z
M 2034 4750 
Q 2819 4750 3233 4129 
Q 3647 3509 3647 2328 
Q 3647 1150 3233 529 
Q 2819 -91 2034 -91 
Q 1250 -91 836 529 
Q 422 1150 422 2328 
Q 422 3509 836 4129 
Q 1250 4750 2034 4750 
z
" transform="scale(0.015625)"/>
       </defs>
       <use xlink:href="#DejaVuSans-4c"/>
       <use xlink:href="#DejaVuSans-31" x="55.712891"/>
       <use xlink:href="#DejaVuSans-5f" x="119.335938"/>
       <use xlink:href="#DejaVuSans-30" x="169.335938"/>
      </g>
     </g>
    </g>
    <g id="xtick_2">
     <g id="line2d_2">
      <g>
       <use xlink:href="#m328d0fb1c7" x="78.9381" y="291.8575" style="stroke: #000000; stroke-width: 0.8"/>
      </g>
     </g>
     <g id="text_2">
      <!-- L1_1 -->
      <g transform="translate(81.41935 322.154375) rotate(-90) scale(0.1 -0.1)">
       <use xlink:href="#DejaVuSans-4c"/>
       <use xlink:href="#DejaVuSans-31" x="55.712891"/>
       <use xlink:href="#DejaVuSans-5f" x="119.335938"/>
       <use xlink:href="#DejaVuSans-31" x="169.335938"/>
      </g>
     </g>
    </g>
    <g id="xtick_3">
     <g id="line2d_3">
      <g>
       <use xlink:href="#m328d0fb1c7" x="90.274852" y="291.8575" style="stroke: #000000; stroke-width: 0.8"/>
      </g>
     </g>
     <g id="text_3">
      <!-- L1_2 -->
      <g transform="translate(92.806883 322.154375) rotate(-90) scale(0.1 -0.1)">
       <defs>
        <path id="DejaVuSans-32" d="M 1228 531 
L 3431 531 
L 3431 0 
L 469 0 
L 469 531 
Q 828 903 1448 1529 
Q 2069 2156 2228 2338 
Q 2531 2678 2651 2914 
Q 2772 3150 2772 3378 
Q 2772 3750 2511 3984 
Q 2250 4219 1831 4219 
Q 1534 4219 1204 4116 
Q 875 4013 500 3803 
L 500 4441 
Q 881 4594 1212 4672 
Q 1544 4750 1819 4750 
Q 2544 4750 2975 4387 
Q 3406 4025 3406 3419 
Q 3406 3131 3298 2873 
Q 3191 2616 2906 2266 
Q 2828 2175 2409 1742 
Q 1991 1309 1228 531 
z
" transform="scale(0.015625)"/>
       </defs>
       <use xlink:href="#DejaVuSans-4c"/>
       <use xlink:href="#DejaVuSans-31" x="55.712891"/>
       <use xlink:href="#DejaVuSans-5f" x="119.335938"/>
       <use xlink:href="#DejaVuSans-32" x="169.335938"/>
      </g>
     </g>
    </g>
    <g id="xtick_4">
     <g id="line2d_4">
      <g>
       <use xlink:href="#m328d0fb1c7" x="101.611603" y="291.8575" style="stroke: #000000; stroke-width: 0.8"/>
      </g>
     </g>
     <g id="text_4">
      <!-- L2_0 -->
      <g transform="translate(104.143635 322.154375) rotate(-90) scale(0.1 -0.1)">
       <use xlink:href="#DejaVuSans-4c"/>
       <use xlink:href="#DejaVuSans-32" x="55.712891"/>
       <use xlink:href="#DejaVuSans-5f" x="119.335938"/>
       <use xlink:href="#DejaVuSans-30" x="169.335938"/>
      </g>
     </g>
    </g>
    <g id="xtick_5">
     <g id="line2d_5">
      <g>
       <use xlink:href="#m328d0fb1c7" x="112.948355" y="291.8575" style="stroke: #000000; stroke-width: 0.8"/>
      </g>
     </g>
     <g id="text_5">
      <!-- L2_1 -->
      <g transform="translate(115.480386 322.154375) rotate(-90) scale(0.1 -0.1)">
       <use xlink:href="#DejaVuSans-4c"/>
       <use xlink:href="#DejaVuSans-32" x="55.712891"/>
       <use xlink:href="#DejaVuSans-5f" x="119.335938"/>
       <use xlink:href="#DejaVuSans-31" x="169.335938"/>
      </g>
     </g>
    </g>
    <g id="xtick_6">
     <g id="line2d_6">
      <g>
       <use xlink:href="#m328d0fb1c7" x="124.285107" y="291.8575" style="stroke: #000000; stroke-width: 0.8"/>
      </g>
     </g>
     <g id="text_6">
      <!-- L2_2 -->
      <g transform="translate(126.817138 322.154375) rotate(-90) scale(0.1 -0.1)">
       <use xlink:href="#DejaVuSans-4c"/>
       <use xlink:href="#DejaVuSans-32" x="55.712891"/>
       <use xlink:href="#DejaVuSans-5f" x="119.335938"/>
       <use xlink:href="#DejaVuSans-32" x="169.335938"/>
      </g>
     </g>
    </g>
    <g id="xtick_7">
     <g id="line2d_7">
      <g>
       <use xlink:href="#m328d0fb1c7" x="135.621858" y="291.8575" style="stroke: #000000; stroke-width: 0.8"/>
      </g>
     </g>
     <g id="text_7">
      <!-- L2_3 -->
      <g transform="translate(138.15389 322.154375) rotate(-90) scale(0.1 -0.1)">
       <defs>
        <path id="DejaVuSans-33" d="M 2597 2516 
Q 3050 2419 3304 2112 
Q 3559 1806 3559 1356 
Q 3559 666 3084 287 
Q 2609 -91 1734 -91 
Q 1441 -91 1130 -33 
Q 819 25 488 141 
L 488 750 
Q 750 597 1062 519 
Q 1375 441 1716 441 
Q 2309 441 2620 675 
Q 2931 909 2931 1356 
Q 2931 1769 2642 2001 
Q 2353 2234 1838 2234 
L 1294 2234 
L 1294 2753 
L 1863 2753 
Q 2328 2753 2575 2939 
Q 2822 3125 2822 3475 
Q 2822 3834 2567 4026 
Q 2313 4219 1838 4219 
Q 1578 4219 1281 4162 
Q 984 4106 628 3988 
L 628 4550 
Q 988 4650 1302 4700 
Q 1616 4750 1894 4750 
Q 2613 4750 3031 4423 
Q 3450 4097 3450 3541 
Q 3450 3153 3228 2886 
Q 3006 2619 2597 2516 
z
" transform="scale(0.015625)"/>
       </defs>
       <use xlink:href="#DejaVuSans-4c"/>
       <use xlink:href="#DejaVuSans-32" x="55.712891"/>
       <use xlink:href="#DejaVuSans-5f" x="119.335938"/>
       <use xlink:href="#DejaVuSans-33" x="169.335938"/>
      </g>
     </g>
    </g>
    <g id="xtick_8">
     <g id="line2d_8">
      <g>
       <use xlink:href="#m328d0fb1c7" x="146.95861" y="291.8575" style="stroke: #000000; stroke-width: 0.8"/>
      </g>
     </g>
     <g id="text_8">
      <!-- L3_0 -->
      <g transform="translate(149.490641 322.154375) rotate(-90) scale(0.1 -0.1)">
       <use xlink:href="#DejaVuSans-4c"/>
       <use xlink:href="#DejaVuSans-33" x="55.712891"/>
       <use xlink:href="#DejaVuSans-5f" x="119.335938"/>
       <use xlink:href="#DejaVuSans-30" x="169.335938"/>
      </g>
     </g>
    </g>
    <g id="xtick_9">
     <g id="line2d_9">
      <g>
       <use xlink:href="#m328d0fb1c7" x="158.295362" y="291.8575" style="stroke: #000000; stroke-width: 0.8"/>
      </g>
     </g>
     <g id="text_9">
      <!-- L3_1 -->
      <g transform="translate(160.827393 322.154375) rotate(-90) scale(0.1 -0.1)">
       <use xlink:href="#DejaVuSans-4c"/>
       <use xlink:href="#DejaVuSans-33" x="55.712891"/>
       <use xlink:href="#DejaVuSans-5f" x="119.335938"/>
       <use xlink:href="#DejaVuSans-31" x="169.335938"/>
      </g>
     </g>
    </g>
    <g id="xtick_10">
     <g id="line2d_10">
      <g>
       <use xlink:href="#m328d0fb1c7" x="169.632113" y="291.8575" style="stroke: #000000; stroke-width: 0.8"/>
      </g>
     </g>
     <g id="text_10">
      <!-- L3_2 -->
      <g transform="translate(172.164145 322.154375) rotate(-90) scale(0.1 -0.1)">
       <use xlink:href="#DejaVuSans-4c"/>
       <use xlink:href="#DejaVuSans-33" x="55.712891"/>
       <use xlink:href="#DejaVuSans-5f" x="119.335938"/>
       <use xlink:href="#DejaVuSans-32" x="169.335938"/>
      </g>
     </g>
    </g>
    <g id="xtick_11">
     <g id="line2d_11">
      <g>
       <use xlink:href="#m328d0fb1c7" x="180.968865" y="291.8575" style="stroke: #000000; stroke-width: 0.8"/>
      </g>
     </g>
     <g id="text_11">
      <!-- L3_3 -->
      <g transform="translate(183.500896 322.154375) rotate(-90) scale(0.1 -0.1)">
       <use xlink:href="#DejaVuSans-4c"/>
       <use xlink:href="#DejaVuSans-33" x="55.712891"/>
       <use xlink:href="#DejaVuSans-5f" x="119.335938"/>
       <use xlink:href="#DejaVuSans-33" x="169.335938"/>
      </g>
     </g>
    </g>
    <g id="xtick_12">
     <g id="line2d_12">
      <g>
       <use xlink:href="#m328d0fb1c7" x="192.305617" y="291.8575" style="stroke: #000000; stroke-width: 0.8"/>
      </g>
     </g>
     <g id="text_12">
      <!-- L3_4 -->
      <g transform="translate(194.837648 322.154375) rotate(-90) scale(0.1 -0.1)">
       <defs>
        <path id="DejaVuSans-34" d="M 2419 4116 
L 825 1625 
L 2419 1625 
L 2419 4116 
z
M 2253 4666 
L 3047 4666 
L 3047 1625 
L 3713 1625 
L 3713 1100 
L 3047 1100 
L 3047 0 
L 2419 0 
L 2419 1100 
L 313 1100 
L 313 1709 
L 2253 4666 
z
" transform="scale(0.015625)"/>
       </defs>
       <use xlink:href="#DejaVuSans-4c"/>
       <use xlink:href="#DejaVuSans-33" x="55.712891"/>
       <use xlink:href="#DejaVuSans-5f" x="119.335938"/>
       <use xlink:href="#DejaVuSans-34" x="169.335938"/>
      </g>
     </g>
    </g>
    <g id="xtick_13">
     <g id="line2d_13">
      <g>
       <use xlink:href="#m328d0fb1c7" x="203.642368" y="291.8575" style="stroke: #000000; stroke-width: 0.8"/>
      </g>
     </g>
     <g id="text_13">
      <!-- L3_5 -->
      <g transform="translate(206.1744 322.154375) rotate(-90) scale(0.1 -0.1)">
       <defs>
        <path id="DejaVuSans-35" d="M 691 4666 
L 3169 4666 
L 3169 4134 
L 1269 4134 
L 1269 2991 
Q 1406 3038 1543 3061 
Q 1681 3084 1819 3084 
Q 2600 3084 3056 2656 
Q 3513 2228 3513 1497 
Q 3513 744 3044 326 
Q 2575 -91 1722 -91 
Q 1428 -91 1123 -41 
Q 819 9 494 109 
L 494 744 
Q 775 591 1075 516 
Q 1375 441 1709 441 
Q 2250 441 2565 725 
Q 2881 1009 2881 1497 
Q 2881 1984 2565 2268 
Q 2250 2553 1709 2553 
Q 1456 2553 1204 2497 
Q 953 2441 691 2322 
L 691 4666 
z
" transform="scale(0.015625)"/>
       </defs>
       <use xlink:href="#DejaVuSans-4c"/>
       <use xlink:href="#DejaVuSans-33" x="55.712891"/>
       <use xlink:href="#DejaVuSans-5f" x="119.335938"/>
       <use xlink:href="#DejaVuSans-35" x="169.335938"/>
      </g>
     </g>
    </g>
    <g id="xtick_14">
     <g id="line2d_14">
      <g>
       <use xlink:href="#m328d0fb1c7" x="214.97912" y="291.8575" style="stroke: #000000; stroke-width: 0.8"/>
      </g>
     </g>
     <g id="text_14">
      <!-- L3_6 -->
      <g transform="translate(217.511151 322.154375) rotate(-90) scale(0.1 -0.1)">
       <defs>
        <path id="DejaVuSans-36" d="M 2113 2584 
Q 1688 2584 1439 2293 
Q 1191 2003 1191 1497 
Q 1191 994 1439 701 
Q 1688 409 2113 409 
Q 2538 409 2786 701 
Q 3034 994 3034 1497 
Q 3034 2003 2786 2293 
Q 2538 2584 2113 2584 
z
M 3366 4563 
L 3366 3988 
Q 3128 4100 2886 4159 
Q 2644 4219 2406 4219 
Q 1781 4219 1451 3797 
Q 1122 3375 1075 2522 
Q 1259 2794 1537 2939 
Q 1816 3084 2150 3084 
Q 2853 3084 3261 2657 
Q 3669 2231 3669 1497 
Q 3669 778 3244 343 
Q 2819 -91 2113 -91 
Q 1303 -91 875 529 
Q 447 1150 447 2328 
Q 447 3434 972 4092 
Q 1497 4750 2381 4750 
Q 2619 4750 2861 4703 
Q 3103 4656 3366 4563 
z
" transform="scale(0.015625)"/>
       </defs>
       <use xlink:href="#DejaVuSans-4c"/>
       <use xlink:href="#DejaVuSans-33" x="55.712891"/>
       <use xlink:href="#DejaVuSans-5f" x="119.335938"/>
       <use xlink:href="#DejaVuSans-36" x="169.335938"/>
      </g>
     </g>
    </g>
    <g id="xtick_15">
     <g id="line2d_15">
      <g>
       <use xlink:href="#m328d0fb1c7" x="226.315872" y="291.8575" style="stroke: #000000; stroke-width: 0.8"/>
      </g>
     </g>
     <g id="text_15">
      <!-- L3_7 -->
      <g transform="translate(228.847903 322.154375) rotate(-90) scale(0.1 -0.1)">
       <defs>
        <path id="DejaVuSans-37" d="M 525 4666 
L 3525 4666 
L 3525 4397 
L 1831 0 
L 1172 0 
L 2766 4134 
L 525 4134 
L 525 4666 
z
" transform="scale(0.015625)"/>
       </defs>
       <use xlink:href="#DejaVuSans-4c"/>
       <use xlink:href="#DejaVuSans-33" x="55.712891"/>
       <use xlink:href="#DejaVuSans-5f" x="119.335938"/>
       <use xlink:href="#DejaVuSans-37" x="169.335938"/>
      </g>
     </g>
    </g>
    <g id="xtick_16">
     <g id="line2d_16">
      <g>
       <use xlink:href="#m328d0fb1c7" x="237.652623" y="291.8575" style="stroke: #000000; stroke-width: 0.8"/>
      </g>
     </g>
     <g id="text_16">
      <!-- L3_8 -->
      <g transform="translate(240.184655 322.154375) rotate(-90) scale(0.1 -0.1)">
       <defs>
        <path id="DejaVuSans-38" d="M 2034 2216 
Q 1584 2216 1326 1975 
Q 1069 1734 1069 1313 
Q 1069 891 1326 650 
Q 1584 409 2034 409 
Q 2484 409 2743 651 
Q 3003 894 3003 1313 
Q 3003 1734 2745 1975 
Q 2488 2216 2034 2216 
z
M 1403 2484 
Q 997 2584 770 2862 
Q 544 3141 544 3541 
Q 544 4100 942 4425 
Q 1341 4750 2034 4750 
Q 2731 4750 3128 4425 
Q 3525 4100 3525 3541 
Q 3525 3141 3298 2862 
Q 3072 2584 2669 2484 
Q 3125 2378 3379 2068 
Q 3634 1759 3634 1313 
Q 3634 634 3220 271 
Q 2806 -91 2034 -91 
Q 1263 -91 848 271 
Q 434 634 434 1313 
Q 434 1759 690 2068 
Q 947 2378 1403 2484 
z
M 1172 3481 
Q 1172 3119 1398 2916 
Q 1625 2713 2034 2713 
Q 2441 2713 2670 2916 
Q 2900 3119 2900 3481 
Q 2900 3844 2670 4047 
Q 2441 4250 2034 4250 
Q 1625 4250 1398 4047 
Q 1172 3844 1172 3481 
z
" transform="scale(0.015625)"/>
       </defs>
       <use xlink:href="#DejaVuSans-4c"/>
       <use xlink:href="#DejaVuSans-33" x="55.712891"/>
       <use xlink:href="#DejaVuSans-5f" x="119.335938"/>
       <use xlink:href="#DejaVuSans-38" x="169.335938"/>
      </g>
     </g>
    </g>
    <g id="xtick_17">
     <g id="line2d_17">
      <g>
       <use xlink:href="#m328d0fb1c7" x="248.989375" y="291.8575" style="stroke: #000000; stroke-width: 0.8"/>
      </g>
     </g>
     <g id="text_17">
      <!-- L3_9 -->
      <g transform="translate(251.521406 322.154375) rotate(-90) scale(0.1 -0.1)">
       <defs>
        <path id="DejaVuSans-39" d="M 703 97 
L 703 672 
Q 941 559 1184 500 
Q 1428 441 1663 441 
Q 2288 441 2617 861 
Q 2947 1281 2994 2138 
Q 2813 1869 2534 1725 
Q 2256 1581 1919 1581 
Q 1219 1581 811 2004 
Q 403 2428 403 3163 
Q 403 3881 828 4315 
Q 1253 4750 1959 4750 
Q 2769 4750 3195 4129 
Q 3622 3509 3622 2328 
Q 3622 1225 3098 567 
Q 2575 -91 1691 -91 
Q 1453 -91 1209 -44 
Q 966 3 703 97 
z
M 1959 2075 
Q 2384 2075 2632 2365 
Q 2881 2656 2881 3163 
Q 2881 3666 2632 3958 
Q 2384 4250 1959 4250 
Q 1534 4250 1286 3958 
Q 1038 3666 1038 3163 
Q 1038 2656 1286 2365 
Q 1534 2075 1959 2075 
z
" transform="scale(0.015625)"/>
       </defs>
       <use xlink:href="#DejaVuSans-4c"/>
       <use xlink:href="#DejaVuSans-33" x="55.712891"/>
       <use xlink:href="#DejaVuSans-5f" x="119.335938"/>
       <use xlink:href="#DejaVuSans-39" x="169.335938"/>
      </g>
     </g>
    </g>
    <g id="xtick_18">
     <g id="line2d_18">
      <g>
       <use xlink:href="#m328d0fb1c7" x="260.326127" y="291.8575" style="stroke: #000000; stroke-width: 0.8"/>
      </g>
     </g>
     <g id="text_18">
      <!-- L3_10 -->
      <g transform="translate(262.858158 328.516875) rotate(-90) scale(0.1 -0.1)">
       <use xlink:href="#DejaVuSans-4c"/>
       <use xlink:href="#DejaVuSans-33" x="55.712891"/>
       <use xlink:href="#DejaVuSans-5f" x="119.335938"/>
       <use xlink:href="#DejaVuSans-31" x="169.335938"/>
       <use xlink:href="#DejaVuSans-30" x="232.958984"/>
      </g>
     </g>
    </g>
    <g id="xtick_19">
     <g id="line2d_19">
      <g>
       <use xlink:href="#m328d0fb1c7" x="271.662878" y="291.8575" style="stroke: #000000; stroke-width: 0.8"/>
      </g>
     </g>
     <g id="text_19">
      <!-- L3_11 -->
      <g transform="translate(274.19491 328.516875) rotate(-90) scale(0.1 -0.1)">
       <use xlink:href="#DejaVuSans-4c"/>
       <use xlink:href="#DejaVuSans-33" x="55.712891"/>
       <use xlink:href="#DejaVuSans-5f" x="119.335938"/>
       <use xlink:href="#DejaVuSans-31" x="169.335938"/>
       <use xlink:href="#DejaVuSans-31" x="232.958984"/>
      </g>
     </g>
    </g>
    <g id="xtick_20">
     <g id="line2d_20">
      <g>
       <use xlink:href="#m328d0fb1c7" x="282.99963" y="291.8575" style="stroke: #000000; stroke-width: 0.8"/>
      </g>
     </g>
     <g id="text_20">
      <!-- L3_12 -->
      <g transform="translate(285.531661 328.516875) rotate(-90) scale(0.1 -0.1)">
       <use xlink:href="#DejaVuSans-4c"/>
       <use xlink:href="#DejaVuSans-33" x="55.712891"/>
       <use xlink:href="#DejaVuSans-5f" x="119.335938"/>
       <use xlink:href="#DejaVuSans-31" x="169.335938"/>
       <use xlink:href="#DejaVuSans-32" x="232.958984"/>
      </g>
     </g>
    </g>
    <g id="xtick_21">
     <g id="line2d_21">
      <g>
       <use xlink:href="#m328d0fb1c7" x="294.336382" y="291.8575" style="stroke: #000000; stroke-width: 0.8"/>
      </g>
     </g>
     <g id="text_21">
      <!-- L3_13 -->
      <g transform="translate(296.868413 328.516875) rotate(-90) scale(0.1 -0.1)">
       <use xlink:href="#DejaVuSans-4c"/>
       <use xlink:href="#DejaVuSans-33" x="55.712891"/>
       <use xlink:href="#DejaVuSans-5f" x="119.335938"/>
       <use xlink:href="#DejaVuSans-31" x="169.335938"/>
       <use xlink:href="#DejaVuSans-33" x="232.958984"/>
      </g>
     </g>
    </g>
    <g id="xtick_22">
     <g id="line2d_22">
      <g>
       <use xlink:href="#m328d0fb1c7" x="305.673133" y="291.8575" style="stroke: #000000; stroke-width: 0.8"/>
      </g>
     </g>
     <g id="text_22">
      <!-- L3_14 -->
      <g transform="translate(308.205165 328.516875) rotate(-90) scale(0.1 -0.1)">
       <use xlink:href="#DejaVuSans-4c"/>
       <use xlink:href="#DejaVuSans-33" x="55.712891"/>
       <use xlink:href="#DejaVuSans-5f" x="119.335938"/>
       <use xlink:href="#DejaVuSans-31" x="169.335938"/>
       <use xlink:href="#DejaVuSans-34" x="232.958984"/>
      </g>
     </g>
    </g>
    <g id="xtick_23">
     <g id="line2d_23">
      <g>
       <use xlink:href="#m328d0fb1c7" x="317.009885" y="291.8575" style="stroke: #000000; stroke-width: 0.8"/>
      </g>
     </g>
     <g id="text_23">
      <!-- L3_15 -->
      <g transform="translate(319.541916 328.516875) rotate(-90) scale(0.1 -0.1)">
       <use xlink:href="#DejaVuSans-4c"/>
       <use xlink:href="#DejaVuSans-33" x="55.712891"/>
       <use xlink:href="#DejaVuSans-5f" x="119.335938"/>
       <use xlink:href="#DejaVuSans-31" x="169.335938"/>
       <use xlink:href="#DejaVuSans-35" x="232.958984"/>
      </g>
     </g>
    </g>
    <g id="xtick_24">
     <g id="line2d_24">
      <g>
       <use xlink:href="#m328d0fb1c7" x="328.346637" y="291.8575" style="stroke: #000000; stroke-width: 0.8"/>
      </g>
     </g>
     <g id="text_24">
      <!-- L3_16 -->
      <g transform="translate(330.878668 328.516875) rotate(-90) scale(0.1 -0.1)">
       <use xlink:href="#DejaVuSans-4c"/>
       <use xlink:href="#DejaVuSans-33" x="55.712891"/>
       <use xlink:href="#DejaVuSans-5f" x="119.335938"/>
       <use xlink:href="#DejaVuSans-31" x="169.335938"/>
       <use xlink:href="#DejaVuSans-36" x="232.958984"/>
      </g>
     </g>
    </g>
    <g id="xtick_25">
     <g id="line2d_25">
      <g>
       <use xlink:href="#m328d0fb1c7" x="339.683388" y="291.8575" style="stroke: #000000; stroke-width: 0.8"/>
      </g>
     </g>
     <g id="text_25">
      <!-- L3_17 -->
      <g transform="translate(342.21542 328.516875) rotate(-90) scale(0.1 -0.1)">
       <use xlink:href="#DejaVuSans-4c"/>
       <use xlink:href="#DejaVuSans-33" x="55.712891"/>
       <use xlink:href="#DejaVuSans-5f" x="119.335938"/>
       <use xlink:href="#DejaVuSans-31" x="169.335938"/>
       <use xlink:href="#DejaVuSans-37" x="232.958984"/>
      </g>
     </g>
    </g>
    <g id="xtick_26">
     <g id="line2d_26">
      <g>
       <use xlink:href="#m328d0fb1c7" x="351.02014" y="291.8575" style="stroke: #000000; stroke-width: 0.8"/>
      </g>
     </g>
     <g id="text_26">
      <!-- L3_18 -->
      <g transform="translate(353.552171 328.516875) rotate(-90) scale(0.1 -0.1)">
       <use xlink:href="#DejaVuSans-4c"/>
       <use xlink:href="#DejaVuSans-33" x="55.712891"/>
       <use xlink:href="#DejaVuSans-5f" x="119.335938"/>
       <use xlink:href="#DejaVuSans-31" x="169.335938"/>
       <use xlink:href="#DejaVuSans-38" x="232.958984"/>
      </g>
     </g>
    </g>
    <g id="xtick_27">
     <g id="line2d_27">
      <g>
       <use xlink:href="#m328d0fb1c7" x="362.356892" y="291.8575" style="stroke: #000000; stroke-width: 0.8"/>
      </g>
     </g>
     <g id="text_27">
      <!-- L3_19 -->
      <g transform="translate(364.888923 328.516875) rotate(-90) scale(0.1 -0.1)">
       <use xlink:href="#DejaVuSans-4c"/>
       <use xlink:href="#DejaVuSans-33" x="55.712891"/>
       <use xlink:href="#DejaVuSans-5f" x="119.335938"/>
       <use xlink:href="#DejaVuSans-31" x="169.335938"/>
       <use xlink:href="#DejaVuSans-39" x="232.958984"/>
      </g>
     </g>
    </g>
    <g id="xtick_28">
     <g id="line2d_28">
      <g>
       <use xlink:href="#m328d0fb1c7" x="373.693643" y="291.8575" style="stroke: #000000; stroke-width: 0.8"/>
      </g>
     </g>
     <g id="text_28">
      <!-- L3_20 -->
      <g transform="translate(376.225675 328.516875) rotate(-90) scale(0.1 -0.1)">
       <use xlink:href="#DejaVuSans-4c"/>
       <use xlink:href="#DejaVuSans-33" x="55.712891"/>
       <use xlink:href="#DejaVuSans-5f" x="119.335938"/>
       <use xlink:href="#DejaVuSans-32" x="169.335938"/>
       <use xlink:href="#DejaVuSans-30" x="232.958984"/>
      </g>
     </g>
    </g>
    <g id="xtick_29">
     <g id="line2d_29">
      <g>
       <use xlink:href="#m328d0fb1c7" x="385.030395" y="291.8575" style="stroke: #000000; stroke-width: 0.8"/>
      </g>
     </g>
     <g id="text_29">
      <!-- L3_21 -->
      <g transform="translate(387.562426 328.516875) rotate(-90) scale(0.1 -0.1)">
       <use xlink:href="#DejaVuSans-4c"/>
       <use xlink:href="#DejaVuSans-33" x="55.712891"/>
       <use xlink:href="#DejaVuSans-5f" x="119.335938"/>
       <use xlink:href="#DejaVuSans-32" x="169.335938"/>
       <use xlink:href="#DejaVuSans-31" x="232.958984"/>
      </g>
     </g>
    </g>
    <g id="xtick_30">
     <g id="line2d_30">
      <g>
       <use xlink:href="#m328d0fb1c7" x="396.367147" y="291.8575" style="stroke: #000000; stroke-width: 0.8"/>
      </g>
     </g>
     <g id="text_30">
      <!-- L3_22 -->
      <g transform="translate(398.899178 328.516875) rotate(-90) scale(0.1 -0.1)">
       <use xlink:href="#DejaVuSans-4c"/>
       <use xlink:href="#DejaVuSans-33" x="55.712891"/>
       <use xlink:href="#DejaVuSans-5f" x="119.335938"/>
       <use xlink:href="#DejaVuSans-32" x="169.335938"/>
       <use xlink:href="#DejaVuSans-32" x="232.958984"/>
      </g>
     </g>
    </g>
    <g id="xtick_31">
     <g id="line2d_31">
      <g>
       <use xlink:href="#m328d0fb1c7" x="407.703898" y="291.8575" style="stroke: #000000; stroke-width: 0.8"/>
      </g>
     </g>
     <g id="text_31">
      <!-- L4_0 -->
      <g transform="translate(410.23593 322.154375) rotate(-90) scale(0.1 -0.1)">
       <use xlink:href="#DejaVuSans-4c"/>
       <use xlink:href="#DejaVuSans-34" x="55.712891"/>
       <use xlink:href="#DejaVuSans-5f" x="119.335938"/>
       <use xlink:href="#DejaVuSans-30" x="169.335938"/>
      </g>
     </g>
    </g>
    <g id="xtick_32">
     <g id="line2d_32">
      <g>
       <use xlink:href="#m328d0fb1c7" x="419.04065" y="291.8575" style="stroke: #000000; stroke-width: 0.8"/>
      </g>
     </g>
     <g id="text_32">
      <!-- L4_1 -->
      <g transform="translate(421.5219 322.154375) rotate(-90) scale(0.1 -0.1)">
       <use xlink:href="#DejaVuSans-4c"/>
       <use xlink:href="#DejaVuSans-34" x="55.712891"/>
       <use xlink:href="#DejaVuSans-5f" x="119.335938"/>
       <use xlink:href="#DejaVuSans-31" x="169.335938"/>
      </g>
     </g>
    </g>
    <g id="xtick_33">
     <g id="line2d_33">
      <g>
       <use xlink:href="#m328d0fb1c7" x="430.377402" y="291.8575" style="stroke: #000000; stroke-width: 0.8"/>
      </g>
     </g>
     <g id="text_33">
      <!-- L4_2 -->
      <g transform="translate(432.909433 322.154375) rotate(-90) scale(0.1 -0.1)">
       <use xlink:href="#DejaVuSans-4c"/>
       <use xlink:href="#DejaVuSans-34" x="55.712891"/>
       <use xlink:href="#DejaVuSans-5f" x="119.335938"/>
       <use xlink:href="#DejaVuSans-32" x="169.335938"/>
      </g>
     </g>
    </g>
    <g id="text_34">
     <!-- Layers -->
     <g transform="translate(225.824844 343.154688) scale(0.14 -0.14)">
      <defs>
       <path id="DejaVuSans-61" d="M 2194 1759 
Q 1497 1759 1228 1600 
Q 959 1441 959 1056 
Q 959 750 1161 570 
Q 1363 391 1709 391 
Q 2188 391 2477 730 
Q 2766 1069 2766 1631 
L 2766 1759 
L 2194 1759 
z
M 3341 1997 
L 3341 0 
L 2766 0 
L 2766 531 
Q 2569 213 2275 61 
Q 1981 -91 1556 -91 
Q 1019 -91 701 211 
Q 384 513 384 1019 
Q 384 1609 779 1909 
Q 1175 2209 1959 2209 
L 2766 2209 
L 2766 2266 
Q 2766 2663 2505 2880 
Q 2244 3097 1772 3097 
Q 1472 3097 1187 3025 
Q 903 2953 641 2809 
L 641 3341 
Q 956 3463 1253 3523 
Q 1550 3584 1831 3584 
Q 2591 3584 2966 3190 
Q 3341 2797 3341 1997 
z
" transform="scale(0.015625)"/>
       <path id="DejaVuSans-79" d="M 2059 -325 
Q 1816 -950 1584 -1140 
Q 1353 -1331 966 -1331 
L 506 -1331 
L 506 -850 
L 844 -850 
Q 1081 -850 1212 -737 
Q 1344 -625 1503 -206 
L 1606 56 
L 191 3500 
L 800 3500 
L 1894 763 
L 2988 3500 
L 3597 3500 
L 2059 -325 
z
" transform="scale(0.015625)"/>
       <path id="DejaVuSans-65" d="M 3597 1894 
L 3597 1613 
L 953 1613 
Q 991 1019 1311 708 
Q 1631 397 2203 397 
Q 2534 397 2845 478 
Q 3156 559 3463 722 
L 3463 178 
Q 3153 47 2828 -22 
Q 2503 -91 2169 -91 
Q 1331 -91 842 396 
Q 353 884 353 1716 
Q 353 2575 817 3079 
Q 1281 3584 2069 3584 
Q 2775 3584 3186 3129 
Q 3597 2675 3597 1894 
z
M 3022 2063 
Q 3016 2534 2758 2815 
Q 2500 3097 2075 3097 
Q 1594 3097 1305 2825 
Q 1016 2553 972 2059 
L 3022 2063 
z
" transform="scale(0.015625)"/>
       <path id="DejaVuSans-72" d="M 2631 2963 
Q 2534 3019 2420 3045 
Q 2306 3072 2169 3072 
Q 1681 3072 1420 2755 
Q 1159 2438 1159 1844 
L 1159 0 
L 581 0 
L 581 3500 
L 1159 3500 
L 1159 2956 
Q 1341 3275 1631 3429 
Q 1922 3584 2338 3584 
Q 2397 3584 2469 3576 
Q 2541 3569 2628 3553 
L 2631 2963 
z
" transform="scale(0.015625)"/>
       <path id="DejaVuSans-73" d="M 2834 3397 
L 2834 2853 
Q 2591 2978 2328 3040 
Q 2066 3103 1784 3103 
Q 1356 3103 1142 2972 
Q 928 2841 928 2578 
Q 928 2378 1081 2264 
Q 1234 2150 1697 2047 
L 1894 2003 
Q 2506 1872 2764 1633 
Q 3022 1394 3022 966 
Q 3022 478 2636 193 
Q 2250 -91 1575 -91 
Q 1294 -91 989 -36 
Q 684 19 347 128 
L 347 722 
Q 666 556 975 473 
Q 1284 391 1588 391 
Q 1994 391 2212 530 
Q 2431 669 2431 922 
Q 2431 1156 2273 1281 
Q 2116 1406 1581 1522 
L 1381 1569 
Q 847 1681 609 1914 
Q 372 2147 372 2553 
Q 372 3047 722 3315 
Q 1072 3584 1716 3584 
Q 2034 3584 2315 3537 
Q 2597 3491 2834 3397 
z
" transform="scale(0.015625)"/>
      </defs>
      <use xlink:href="#DejaVuSans-4c"/>
      <use xlink:href="#DejaVuSans-61" x="55.712891"/>
      <use xlink:href="#DejaVuSans-79" x="116.992188"/>
      <use xlink:href="#DejaVuSans-65" x="176.171875"/>
      <use xlink:href="#DejaVuSans-72" x="237.695312"/>
      <use xlink:href="#DejaVuSans-73" x="278.808594"/>
     </g>
    </g>
   </g>
   <g id="matplotlib.axis_2">
    <g id="ytick_1">
     <g id="line2d_34">
      <defs>
       <path id="m7016eeff1a" d="M 0 0 
L -3.5 0 
" style="stroke: #000000; stroke-width: 0.8"/>
      </defs>
      <g>
       <use xlink:href="#m7016eeff1a" x="44.474375" y="291.8575" style="stroke: #000000; stroke-width: 0.8"/>
      </g>
     </g>
     <g id="text_35">
      <!-- 0 -->
      <g transform="translate(31.111875 295.656719) scale(0.1 -0.1)">
       <use xlink:href="#DejaVuSans-30"/>
      </g>
     </g>
    </g>
    <g id="ytick_2">
     <g id="line2d_35">
      <g>
       <use xlink:href="#m7016eeff1a" x="44.474375" y="242.055208" style="stroke: #000000; stroke-width: 0.8"/>
      </g>
     </g>
     <g id="text_36">
      <!-- 5 -->
      <g transform="translate(31.111875 245.854427) scale(0.1 -0.1)">
       <use xlink:href="#DejaVuSans-35"/>
      </g>
     </g>
    </g>
    <g id="ytick_3">
     <g id="line2d_36">
      <g>
       <use xlink:href="#m7016eeff1a" x="44.474375" y="192.252917" style="stroke: #000000; stroke-width: 0.8"/>
      </g>
     </g>
     <g id="text_37">
      <!-- 10 -->
      <g transform="translate(24.749375 196.052135) scale(0.1 -0.1)">
       <use xlink:href="#DejaVuSans-31"/>
       <use xlink:href="#DejaVuSans-30" x="63.623047"/>
      </g>
     </g>
    </g>
    <g id="ytick_4">
     <g id="line2d_37">
      <g>
       <use xlink:href="#m7016eeff1a" x="44.474375" y="142.450625" style="stroke: #000000; stroke-width: 0.8"/>
      </g>
     </g>
     <g id="text_38">
      <!-- 15 -->
      <g transform="translate(24.749375 146.249844) scale(0.1 -0.1)">
       <use xlink:href="#DejaVuSans-31"/>
       <use xlink:href="#DejaVuSans-35" x="63.623047"/>
      </g>
     </g>
    </g>
    <g id="ytick_5">
     <g id="line2d_38">
      <g>
       <use xlink:href="#m7016eeff1a" x="44.474375" y="92.648333" style="stroke: #000000; stroke-width: 0.8"/>
      </g>
     </g>
     <g id="text_39">
      <!-- 20 -->
      <g transform="translate(24.749375 96.447552) scale(0.1 -0.1)">
       <use xlink:href="#DejaVuSans-32"/>
       <use xlink:href="#DejaVuSans-30" x="63.623047"/>
      </g>
     </g>
    </g>
    <g id="ytick_6">
     <g id="line2d_39">
      <g>
       <use xlink:href="#m7016eeff1a" x="44.474375" y="42.846042" style="stroke: #000000; stroke-width: 0.8"/>
      </g>
     </g>
     <g id="text_40">
      <!-- 25 -->
      <g transform="translate(24.749375 46.64526) scale(0.1 -0.1)">
       <use xlink:href="#DejaVuSans-32"/>
       <use xlink:href="#DejaVuSans-35" x="63.623047"/>
      </g>
     </g>
    </g>
    <g id="text_41">
     <!-- EMD Values -->
     <g transform="translate(17.837812 199.555313) rotate(-90) scale(0.14 -0.14)">
      <defs>
       <path id="DejaVuSans-45" d="M 628 4666 
L 3578 4666 
L 3578 4134 
L 1259 4134 
L 1259 2753 
L 3481 2753 
L 3481 2222 
L 1259 2222 
L 1259 531 
L 3634 531 
L 3634 0 
L 628 0 
L 628 4666 
z
" transform="scale(0.015625)"/>
       <path id="DejaVuSans-4d" d="M 628 4666 
L 1569 4666 
L 2759 1491 
L 3956 4666 
L 4897 4666 
L 4897 0 
L 4281 0 
L 4281 4097 
L 3078 897 
L 2444 897 
L 1241 4097 
L 1241 0 
L 628 0 
L 628 4666 
z
" transform="scale(0.015625)"/>
       <path id="DejaVuSans-44" d="M 1259 4147 
L 1259 519 
L 2022 519 
Q 2988 519 3436 956 
Q 3884 1394 3884 2338 
Q 3884 3275 3436 3711 
Q 2988 4147 2022 4147 
L 1259 4147 
z
M 628 4666 
L 1925 4666 
Q 3281 4666 3915 4102 
Q 4550 3538 4550 2338 
Q 4550 1131 3912 565 
Q 3275 0 1925 0 
L 628 0 
L 628 4666 
z
" transform="scale(0.015625)"/>
       <path id="DejaVuSans-20" transform="scale(0.015625)"/>
       <path id="DejaVuSans-56" d="M 1831 0 
L 50 4666 
L 709 4666 
L 2188 738 
L 3669 4666 
L 4325 4666 
L 2547 0 
L 1831 0 
z
" transform="scale(0.015625)"/>
       <path id="DejaVuSans-6c" d="M 603 4863 
L 1178 4863 
L 1178 0 
L 603 0 
L 603 4863 
z
" transform="scale(0.015625)"/>
       <path id="DejaVuSans-75" d="M 544 1381 
L 544 3500 
L 1119 3500 
L 1119 1403 
Q 1119 906 1312 657 
Q 1506 409 1894 409 
Q 2359 409 2629 706 
Q 2900 1003 2900 1516 
L 2900 3500 
L 3475 3500 
L 3475 0 
L 2900 0 
L 2900 538 
Q 2691 219 2414 64 
Q 2138 -91 1772 -91 
Q 1169 -91 856 284 
Q 544 659 544 1381 
z
M 1991 3584 
L 1991 3584 
z
" transform="scale(0.015625)"/>
      </defs>
      <use xlink:href="#DejaVuSans-45"/>
      <use xlink:href="#DejaVuSans-4d" x="63.183594"/>
      <use xlink:href="#DejaVuSans-44" x="149.462891"/>
      <use xlink:href="#DejaVuSans-20" x="226.464844"/>
      <use xlink:href="#DejaVuSans-56" x="258.251953"/>
      <use xlink:href="#DejaVuSans-61" x="318.910156"/>
      <use xlink:href="#DejaVuSans-6c" x="380.189453"/>
      <use xlink:href="#DejaVuSans-75" x="407.972656"/>
      <use xlink:href="#DejaVuSans-65" x="471.351562"/>
      <use xlink:href="#DejaVuSans-73" x="532.875"/>
     </g>
    </g>
   </g>
   <g id="line2d_40">
    <path d="M 44.474375 100.501731 
L 453.504375 100.501731 
" clip-path="url(#p528afec0de)" style="fill: none; stroke-dasharray: 5.55,2.4; stroke-dashoffset: 0; stroke: #008000; stroke-width: 1.5"/>
   </g>
   <g id="patch_36">
    <path d="M 44.474375 291.8575 
L 44.474375 25.3575 
" style="fill: none; stroke: #000000; stroke-width: 0.8; stroke-linejoin: miter; stroke-linecap: square"/>
   </g>
   <g id="patch_37">
    <path d="M 453.504375 291.8575 
L 453.504375 25.3575 
" style="fill: none; stroke: #000000; stroke-width: 0.8; stroke-linejoin: miter; stroke-linecap: square"/>
   </g>
   <g id="patch_38">
    <path d="M 44.474375 291.8575 
L 453.504375 291.8575 
" style="fill: none; stroke: #000000; stroke-width: 0.8; stroke-linejoin: miter; stroke-linecap: square"/>
   </g>
   <g id="patch_39">
    <path d="M 44.474375 25.3575 
L 453.504375 25.3575 
" style="fill: none; stroke: #000000; stroke-width: 0.8; stroke-linejoin: miter; stroke-linecap: square"/>
   </g>
   <g id="text_42">
    <!-- Layer-wise Histogram -->
    <g transform="translate(162.409375 19.3575) scale(0.16 -0.16)">
     <defs>
      <path id="DejaVuSans-2d" d="M 313 2009 
L 1997 2009 
L 1997 1497 
L 313 1497 
L 313 2009 
z
" transform="scale(0.015625)"/>
      <path id="DejaVuSans-77" d="M 269 3500 
L 844 3500 
L 1563 769 
L 2278 3500 
L 2956 3500 
L 3675 769 
L 4391 3500 
L 4966 3500 
L 4050 0 
L 3372 0 
L 2619 2869 
L 1863 0 
L 1184 0 
L 269 3500 
z
" transform="scale(0.015625)"/>
      <path id="DejaVuSans-69" d="M 603 3500 
L 1178 3500 
L 1178 0 
L 603 0 
L 603 3500 
z
M 603 4863 
L 1178 4863 
L 1178 4134 
L 603 4134 
L 603 4863 
z
" transform="scale(0.015625)"/>
      <path id="DejaVuSans-48" d="M 628 4666 
L 1259 4666 
L 1259 2753 
L 3553 2753 
L 3553 4666 
L 4184 4666 
L 4184 0 
L 3553 0 
L 3553 2222 
L 1259 2222 
L 1259 0 
L 628 0 
L 628 4666 
z
" transform="scale(0.015625)"/>
      <path id="DejaVuSans-74" d="M 1172 4494 
L 1172 3500 
L 2356 3500 
L 2356 3053 
L 1172 3053 
L 1172 1153 
Q 1172 725 1289 603 
Q 1406 481 1766 481 
L 2356 481 
L 2356 0 
L 1766 0 
Q 1100 0 847 248 
Q 594 497 594 1153 
L 594 3053 
L 172 3053 
L 172 3500 
L 594 3500 
L 594 4494 
L 1172 4494 
z
" transform="scale(0.015625)"/>
      <path id="DejaVuSans-6f" d="M 1959 3097 
Q 1497 3097 1228 2736 
Q 959 2375 959 1747 
Q 959 1119 1226 758 
Q 1494 397 1959 397 
Q 2419 397 2687 759 
Q 2956 1122 2956 1747 
Q 2956 2369 2687 2733 
Q 2419 3097 1959 3097 
z
M 1959 3584 
Q 2709 3584 3137 3096 
Q 3566 2609 3566 1747 
Q 3566 888 3137 398 
Q 2709 -91 1959 -91 
Q 1206 -91 779 398 
Q 353 888 353 1747 
Q 353 2609 779 3096 
Q 1206 3584 1959 3584 
z
" transform="scale(0.015625)"/>
      <path id="DejaVuSans-67" d="M 2906 1791 
Q 2906 2416 2648 2759 
Q 2391 3103 1925 3103 
Q 1463 3103 1205 2759 
Q 947 2416 947 1791 
Q 947 1169 1205 825 
Q 1463 481 1925 481 
Q 2391 481 2648 825 
Q 2906 1169 2906 1791 
z
M 3481 434 
Q 3481 -459 3084 -895 
Q 2688 -1331 1869 -1331 
Q 1566 -1331 1297 -1286 
Q 1028 -1241 775 -1147 
L 775 -588 
Q 1028 -725 1275 -790 
Q 1522 -856 1778 -856 
Q 2344 -856 2625 -561 
Q 2906 -266 2906 331 
L 2906 616 
Q 2728 306 2450 153 
Q 2172 0 1784 0 
Q 1141 0 747 490 
Q 353 981 353 1791 
Q 353 2603 747 3093 
Q 1141 3584 1784 3584 
Q 2172 3584 2450 3431 
Q 2728 3278 2906 2969 
L 2906 3500 
L 3481 3500 
L 3481 434 
z
" transform="scale(0.015625)"/>
      <path id="DejaVuSans-6d" d="M 3328 2828 
Q 3544 3216 3844 3400 
Q 4144 3584 4550 3584 
Q 5097 3584 5394 3201 
Q 5691 2819 5691 2113 
L 5691 0 
L 5113 0 
L 5113 2094 
Q 5113 2597 4934 2840 
Q 4756 3084 4391 3084 
Q 3944 3084 3684 2787 
Q 3425 2491 3425 1978 
L 3425 0 
L 2847 0 
L 2847 2094 
Q 2847 2600 2669 2842 
Q 2491 3084 2119 3084 
Q 1678 3084 1418 2786 
Q 1159 2488 1159 1978 
L 1159 0 
L 581 0 
L 581 3500 
L 1159 3500 
L 1159 2956 
Q 1356 3278 1631 3431 
Q 1906 3584 2284 3584 
Q 2666 3584 2933 3390 
Q 3200 3197 3328 2828 
z
" transform="scale(0.015625)"/>
     </defs>
     <use xlink:href="#DejaVuSans-4c"/>
     <use xlink:href="#DejaVuSans-61" x="55.712891"/>
     <use xlink:href="#DejaVuSans-79" x="116.992188"/>
     <use xlink:href="#DejaVuSans-65" x="176.171875"/>
     <use xlink:href="#DejaVuSans-72" x="237.695312"/>
     <use xlink:href="#DejaVuSans-2d" x="272.433594"/>
     <use xlink:href="#DejaVuSans-77" x="308.517578"/>
     <use xlink:href="#DejaVuSans-69" x="390.304688"/>
     <use xlink:href="#DejaVuSans-73" x="418.087891"/>
     <use xlink:href="#DejaVuSans-65" x="470.1875"/>
     <use xlink:href="#DejaVuSans-20" x="531.710938"/>
     <use xlink:href="#DejaVuSans-48" x="563.498047"/>
     <use xlink:href="#DejaVuSans-69" x="638.693359"/>
     <use xlink:href="#DejaVuSans-73" x="666.476562"/>
     <use xlink:href="#DejaVuSans-74" x="718.576172"/>
     <use xlink:href="#DejaVuSans-6f" x="757.785156"/>
     <use xlink:href="#DejaVuSans-67" x="818.966797"/>
     <use xlink:href="#DejaVuSans-72" x="882.443359"/>
     <use xlink:href="#DejaVuSans-61" x="923.556641"/>
     <use xlink:href="#DejaVuSans-6d" x="984.835938"/>
    </g>
   </g>
   <g id="legend_1">
    <g id="patch_40">
     <path d="M 294.174375 52.57125 
L 445.104375 52.57125 
Q 447.504375 52.57125 447.504375 50.17125 
L 447.504375 33.7575 
Q 447.504375 31.3575 445.104375 31.3575 
L 294.174375 31.3575 
Q 291.774375 31.3575 291.774375 33.7575 
L 291.774375 50.17125 
Q 291.774375 52.57125 294.174375 52.57125 
z
" style="fill: #ffffff; opacity: 0.8; stroke: #cccccc; stroke-linejoin: miter"/>
    </g>
    <g id="line2d_41">
     <path d="M 296.574375 41.075625 
L 308.574375 41.075625 
L 320.574375 41.075625 
" style="fill: none; stroke-dasharray: 5.55,2.4; stroke-dashoffset: 0; stroke: #008000; stroke-width: 1.5"/>
    </g>
    <g id="text_43">
     <!-- Mean + Std: 19.21 -->
     <g transform="translate(330.174375 45.275625) scale(0.12 -0.12)">
      <defs>
       <path id="DejaVuSans-6e" d="M 3513 2113 
L 3513 0 
L 2938 0 
L 2938 2094 
Q 2938 2591 2744 2837 
Q 2550 3084 2163 3084 
Q 1697 3084 1428 2787 
Q 1159 2491 1159 1978 
L 1159 0 
L 581 0 
L 581 3500 
L 1159 3500 
L 1159 2956 
Q 1366 3272 1645 3428 
Q 1925 3584 2291 3584 
Q 2894 3584 3203 3211 
Q 3513 2838 3513 2113 
z
" transform="scale(0.015625)"/>
       <path id="DejaVuSans-2b" d="M 2944 4013 
L 2944 2272 
L 4684 2272 
L 4684 1741 
L 2944 1741 
L 2944 0 
L 2419 0 
L 2419 1741 
L 678 1741 
L 678 2272 
L 2419 2272 
L 2419 4013 
L 2944 4013 
z
" transform="scale(0.015625)"/>
       <path id="DejaVuSans-53" d="M 3425 4513 
L 3425 3897 
Q 3066 4069 2747 4153 
Q 2428 4238 2131 4238 
Q 1616 4238 1336 4038 
Q 1056 3838 1056 3469 
Q 1056 3159 1242 3001 
Q 1428 2844 1947 2747 
L 2328 2669 
Q 3034 2534 3370 2195 
Q 3706 1856 3706 1288 
Q 3706 609 3251 259 
Q 2797 -91 1919 -91 
Q 1588 -91 1214 -16 
Q 841 59 441 206 
L 441 856 
Q 825 641 1194 531 
Q 1563 422 1919 422 
Q 2459 422 2753 634 
Q 3047 847 3047 1241 
Q 3047 1584 2836 1778 
Q 2625 1972 2144 2069 
L 1759 2144 
Q 1053 2284 737 2584 
Q 422 2884 422 3419 
Q 422 4038 858 4394 
Q 1294 4750 2059 4750 
Q 2388 4750 2728 4690 
Q 3069 4631 3425 4513 
z
" transform="scale(0.015625)"/>
       <path id="DejaVuSans-64" d="M 2906 2969 
L 2906 4863 
L 3481 4863 
L 3481 0 
L 2906 0 
L 2906 525 
Q 2725 213 2448 61 
Q 2172 -91 1784 -91 
Q 1150 -91 751 415 
Q 353 922 353 1747 
Q 353 2572 751 3078 
Q 1150 3584 1784 3584 
Q 2172 3584 2448 3432 
Q 2725 3281 2906 2969 
z
M 947 1747 
Q 947 1113 1208 752 
Q 1469 391 1925 391 
Q 2381 391 2643 752 
Q 2906 1113 2906 1747 
Q 2906 2381 2643 2742 
Q 2381 3103 1925 3103 
Q 1469 3103 1208 2742 
Q 947 2381 947 1747 
z
" transform="scale(0.015625)"/>
       <path id="DejaVuSans-3a" d="M 750 794 
L 1409 794 
L 1409 0 
L 750 0 
L 750 794 
z
M 750 3309 
L 1409 3309 
L 1409 2516 
L 750 2516 
L 750 3309 
z
" transform="scale(0.015625)"/>
       <path id="DejaVuSans-2e" d="M 684 794 
L 1344 794 
L 1344 0 
L 684 0 
L 684 794 
z
" transform="scale(0.015625)"/>
      </defs>
      <use xlink:href="#DejaVuSans-4d"/>
      <use xlink:href="#DejaVuSans-65" x="86.279297"/>
      <use xlink:href="#DejaVuSans-61" x="147.802734"/>
      <use xlink:href="#DejaVuSans-6e" x="209.082031"/>
      <use xlink:href="#DejaVuSans-20" x="272.460938"/>
      <use xlink:href="#DejaVuSans-2b" x="304.248047"/>
      <use xlink:href="#DejaVuSans-20" x="388.037109"/>
      <use xlink:href="#DejaVuSans-53" x="419.824219"/>
      <use xlink:href="#DejaVuSans-74" x="483.300781"/>
      <use xlink:href="#DejaVuSans-64" x="522.509766"/>
      <use xlink:href="#DejaVuSans-3a" x="585.986328"/>
      <use xlink:href="#DejaVuSans-20" x="619.677734"/>
      <use xlink:href="#DejaVuSans-31" x="651.464844"/>
      <use xlink:href="#DejaVuSans-39" x="715.087891"/>
      <use xlink:href="#DejaVuSans-2e" x="778.710938"/>
      <use xlink:href="#DejaVuSans-32" x="810.498047"/>
      <use xlink:href="#DejaVuSans-31" x="874.121094"/>
     </g>
    </g>
   </g>
  </g>
 </g>
 <defs>
  <clipPath id="p528afec0de">
   <rect x="44.474375" y="25.3575" width="409.03" height="266.5"/>
  </clipPath>
 </defs>
</svg>
